M48
; DRILL file {KiCad 5.1.9-73d0e3b20d~88~ubuntu18.04.1} date Thu Feb 25 17:56:52 2021
; FORMAT={-:-/ absolute / inch / decimal}
; #@! TF.CreationDate,2021-02-25T17:56:52+01:00
; #@! TF.GenerationSoftware,Kicad,Pcbnew,5.1.9-73d0e3b20d~88~ubuntu18.04.1
; #@! TF.FileFunction,Plated,1,2,PTH
FMAT,2
INCH
T1C0.0079
T2C0.0118
T3C0.0157
T4C0.0256
T5C0.0374
T6C0.0394
%
G90
G05
T1
X4.0874Y-5.8488
X4.0874Y-5.9
X4.0874Y-5.9512
X4.1626Y-5.8488
X4.1626Y-5.9
X4.1626Y-5.9512
X4.4488Y-5.2124
X4.4488Y-5.2876
X4.5Y-5.2124
X4.5Y-5.2876
X4.5512Y-5.2124
X4.5512Y-5.2876
T2
X3.965Y-5.825
X3.965Y-5.855
X3.965Y-5.885
X3.965Y-5.915
X3.965Y-5.945
X3.965Y-5.975
X4.0Y-4.235
X4.0Y-5.5
X4.0187Y-5.8013
X4.0187Y-5.9987
X4.05Y-5.5177
X4.0705Y-5.3003
X4.0705Y-5.3397
X4.08Y-5.5
X4.08Y-5.5669
X4.09Y-4.265
X4.1Y-5.32
X4.12Y-5.5
X4.1295Y-5.3003
X4.1295Y-5.3397
X4.175Y-4.48
X4.2Y-4.605
X4.2Y-5.5
X4.2Y-5.56
X4.225Y-4.235
X4.225Y-4.87
X4.24Y-5.61
X4.25Y-4.33
X4.265Y-5.08
X4.285Y-5.14
X4.295Y-4.36
X4.3189Y-4.235
X4.3293Y-4.4688
X4.41Y-4.3285
X4.41Y-4.36
X4.41Y-4.7037
X4.41Y-4.7937
X4.425Y-4.1339
X4.425Y-4.96
X4.46Y-4.47
X4.46Y-4.995
X4.465Y-5.61
X4.485Y-4.105
X4.49Y-4.9
X4.49Y-4.93
X4.49Y-4.96
X4.5Y-5.56
X4.525Y-5.0
X4.53Y-4.235
X4.53Y-4.7037
X4.53Y-4.7937
X4.58Y-4.37
X4.5896Y-5.4192
X4.6073Y-4.96
X4.61Y-4.17
X4.61Y-4.27
X4.61Y-4.33
T3
X4.265Y-4.91
X4.265Y-4.97
X4.295Y-4.94
T5
X4.485Y-5.7247
X4.485Y-5.8231
X4.485Y-5.9216
X4.485Y-6.02
T6
X4.02Y-4.68
X4.02Y-4.78
X4.095Y-4.975
X4.095Y-5.0734
X4.1116Y-5.72
X4.12Y-4.68
X4.12Y-4.78
X4.21Y-5.72
X4.22Y-4.68
X4.22Y-4.78
T4
G00X4.4171Y-4.5687
M15
G01X4.3738Y-4.5687
M16
G05
G00X4.4171Y-4.9088
M15
G01X4.3738Y-4.9088
M16
G05
G00X4.5718Y-4.5687
M15
G01X4.5482Y-4.5687
M16
G05
G00X4.5718Y-4.9088
M15
G01X4.5482Y-4.9088
M16
G05
T0
M30
