%TF.GenerationSoftware,KiCad,Pcbnew,5.1.9-73d0e3b20d~88~ubuntu18.04.1*%
%TF.CreationDate,2021-02-25T17:56:51+01:00*%
%TF.ProjectId,climate_control,636c696d-6174-4655-9f63-6f6e74726f6c,rev?*%
%TF.SameCoordinates,Original*%
%TF.FileFunction,Legend,Top*%
%TF.FilePolarity,Positive*%
%FSLAX46Y46*%
G04 Gerber Fmt 4.6, Leading zero omitted, Abs format (unit mm)*
G04 Created by KiCad (PCBNEW 5.1.9-73d0e3b20d~88~ubuntu18.04.1) date 2021-02-25 17:56:51*
%MOMM*%
%LPD*%
G01*
G04 APERTURE LIST*
%ADD10C,0.120000*%
%ADD11C,0.150000*%
G04 APERTURE END LIST*
D10*
%TO.C,C6*%
X102723836Y-107209000D02*
X102508164Y-107209000D01*
X102723836Y-107929000D02*
X102508164Y-107929000D01*
D11*
%TO.C,U3*%
X105849000Y-104325000D02*
X105849000Y-104550000D01*
X113099000Y-104325000D02*
X113099000Y-104650000D01*
X113099000Y-111575000D02*
X113099000Y-111250000D01*
X105849000Y-111575000D02*
X105849000Y-111250000D01*
X105849000Y-104325000D02*
X106174000Y-104325000D01*
X105849000Y-111575000D02*
X106174000Y-111575000D01*
X113099000Y-111575000D02*
X112774000Y-111575000D01*
X113099000Y-104325000D02*
X112774000Y-104325000D01*
X105849000Y-104550000D02*
X104424000Y-104550000D01*
D10*
%TO.C,C1*%
X112905000Y-127775580D02*
X112905000Y-127494420D01*
X111885000Y-127775580D02*
X111885000Y-127494420D01*
%TO.C,C4*%
X112635420Y-141734000D02*
X112916580Y-141734000D01*
X112635420Y-140714000D02*
X112916580Y-140714000D01*
%TO.C,C7*%
X108344580Y-139190000D02*
X108063420Y-139190000D01*
X108344580Y-140210000D02*
X108063420Y-140210000D01*
%TO.C,C8*%
X108344580Y-141734000D02*
X108063420Y-141734000D01*
X108344580Y-140714000D02*
X108063420Y-140714000D01*
%TO.C,C10*%
X107174420Y-130046000D02*
X107455580Y-130046000D01*
X107174420Y-131066000D02*
X107455580Y-131066000D01*
%TO.C,U1*%
X111740000Y-133350000D02*
X111740000Y-135300000D01*
X111740000Y-133350000D02*
X111740000Y-131400000D01*
X116860000Y-133350000D02*
X116860000Y-135300000D01*
X116860000Y-133350000D02*
X116860000Y-129900000D01*
%TO.C,U2*%
X104775000Y-147300000D02*
X101325000Y-147300000D01*
X104775000Y-147300000D02*
X106725000Y-147300000D01*
X104775000Y-152420000D02*
X102825000Y-152420000D01*
X104775000Y-152420000D02*
X106725000Y-152420000D01*
%TO.C,U4*%
X102515000Y-135778000D02*
X102515000Y-136753000D01*
X105765000Y-133503000D02*
X105765000Y-134478000D01*
X105765000Y-135778000D02*
X105765000Y-136753000D01*
X102515000Y-133503000D02*
X102515000Y-134478000D01*
X105540000Y-136753000D02*
X105765000Y-136753000D01*
X102740000Y-136753000D02*
X102515000Y-136753000D01*
X102515000Y-133503000D02*
X102740000Y-133503000D01*
%TO.C,D1*%
X115724000Y-126835000D02*
X115724000Y-129120000D01*
X115724000Y-129120000D02*
X117194000Y-129120000D01*
X117194000Y-129120000D02*
X117194000Y-126835000D01*
%TO.C,Q2*%
X106555000Y-124912000D02*
X106555000Y-125842000D01*
X106555000Y-128072000D02*
X106555000Y-127142000D01*
X106555000Y-128072000D02*
X108715000Y-128072000D01*
X106555000Y-124912000D02*
X108015000Y-124912000D01*
%TO.C,R1*%
X114045000Y-138657359D02*
X114045000Y-138964641D01*
X113285000Y-138657359D02*
X113285000Y-138964641D01*
%TO.C,R2*%
X114555000Y-138964641D02*
X114555000Y-138657359D01*
X115315000Y-138964641D02*
X115315000Y-138657359D01*
%TO.C,R4*%
X115088641Y-143257000D02*
X114781359Y-143257000D01*
X115088641Y-144017000D02*
X114781359Y-144017000D01*
%TO.C,R9*%
X113638359Y-122141000D02*
X113945641Y-122141000D01*
X113638359Y-121381000D02*
X113945641Y-121381000D01*
%TO.C,R11*%
X115315000Y-128423641D02*
X115315000Y-128116359D01*
X114555000Y-128423641D02*
X114555000Y-128116359D01*
%TO.C,R12*%
X109701359Y-148845000D02*
X110008641Y-148845000D01*
X109701359Y-149605000D02*
X110008641Y-149605000D01*
%TO.C,R13*%
X113638359Y-119095000D02*
X113945641Y-119095000D01*
X113638359Y-119855000D02*
X113945641Y-119855000D01*
%TO.C,R14*%
X107468641Y-129412000D02*
X107161359Y-129412000D01*
X107468641Y-128652000D02*
X107161359Y-128652000D01*
%TO.C,R15*%
X104268000Y-138530359D02*
X104268000Y-138837641D01*
X105028000Y-138530359D02*
X105028000Y-138837641D01*
%TO.C,R17*%
X102236000Y-138837641D02*
X102236000Y-138530359D01*
X102996000Y-138837641D02*
X102996000Y-138530359D01*
%TO.C,R18*%
X103252000Y-138530359D02*
X103252000Y-138837641D01*
X104012000Y-138530359D02*
X104012000Y-138837641D01*
%TO.C,C3*%
X109747164Y-150135000D02*
X109962836Y-150135000D01*
X109747164Y-150855000D02*
X109962836Y-150855000D01*
%TO.C,C5*%
X115970164Y-108098000D02*
X116185836Y-108098000D01*
X115970164Y-108818000D02*
X116185836Y-108818000D01*
%TO.C,C9*%
X101240000Y-138576164D02*
X101240000Y-138791836D01*
X101960000Y-138576164D02*
X101960000Y-138791836D01*
%TO.C,C11*%
X115970164Y-110342000D02*
X116185836Y-110342000D01*
X115970164Y-109622000D02*
X116185836Y-109622000D01*
%TO.C,R3*%
X115924359Y-104522000D02*
X116231641Y-104522000D01*
X115924359Y-105282000D02*
X116231641Y-105282000D01*
%TO.C,R5*%
X115924359Y-106298000D02*
X116231641Y-106298000D01*
X115924359Y-105538000D02*
X116231641Y-105538000D01*
%TD*%
M02*
