%TF.GenerationSoftware,KiCad,Pcbnew,5.1.9-73d0e3b20d~88~ubuntu18.04.1*%
%TF.CreationDate,2021-02-25T17:56:51+01:00*%
%TF.ProjectId,climate_control,636c696d-6174-4655-9f63-6f6e74726f6c,rev?*%
%TF.SameCoordinates,Original*%
%TF.FileFunction,Copper,L1,Top*%
%TF.FilePolarity,Positive*%
%FSLAX46Y46*%
G04 Gerber Fmt 4.6, Leading zero omitted, Abs format (unit mm)*
G04 Created by KiCad (PCBNEW 5.1.9-73d0e3b20d~88~ubuntu18.04.1) date 2021-02-25 17:56:51*
%MOMM*%
%LPD*%
G01*
G04 APERTURE LIST*
%TA.AperFunction,ComponentPad*%
%ADD10O,1.950000X1.700000*%
%TD*%
%TA.AperFunction,SMDPad,CuDef*%
%ADD11R,1.600000X0.550000*%
%TD*%
%TA.AperFunction,SMDPad,CuDef*%
%ADD12R,0.550000X1.600000*%
%TD*%
%TA.AperFunction,ComponentPad*%
%ADD13C,0.500000*%
%TD*%
%TA.AperFunction,SMDPad,CuDef*%
%ADD14R,3.500000X2.600000*%
%TD*%
%TA.AperFunction,SMDPad,CuDef*%
%ADD15R,2.600000X3.500000*%
%TD*%
%TA.AperFunction,SMDPad,CuDef*%
%ADD16O,0.280000X0.850000*%
%TD*%
%TA.AperFunction,SMDPad,CuDef*%
%ADD17R,0.280000X0.280000*%
%TD*%
%TA.AperFunction,SMDPad,CuDef*%
%ADD18R,1.050000X0.680000*%
%TD*%
%TA.AperFunction,SMDPad,CuDef*%
%ADD19R,0.700000X0.280000*%
%TD*%
%TA.AperFunction,SMDPad,CuDef*%
%ADD20R,0.500000X0.260000*%
%TD*%
%TA.AperFunction,SMDPad,CuDef*%
%ADD21R,2.400000X1.650000*%
%TD*%
%TA.AperFunction,ComponentPad*%
%ADD22C,0.600000*%
%TD*%
%TA.AperFunction,SMDPad,CuDef*%
%ADD23R,0.900000X0.800000*%
%TD*%
%TA.AperFunction,ComponentPad*%
%ADD24O,1.700000X2.000000*%
%TD*%
%TA.AperFunction,ComponentPad*%
%ADD25O,2.000000X1.700000*%
%TD*%
%TA.AperFunction,ComponentPad*%
%ADD26O,2.100000X1.050000*%
%TD*%
%TA.AperFunction,ComponentPad*%
%ADD27R,1.700000X1.700000*%
%TD*%
%TA.AperFunction,ComponentPad*%
%ADD28O,1.700000X1.700000*%
%TD*%
%TA.AperFunction,SMDPad,CuDef*%
%ADD29R,2.500000X1.500000*%
%TD*%
%TA.AperFunction,ViaPad*%
%ADD30C,0.600000*%
%TD*%
%TA.AperFunction,ViaPad*%
%ADD31C,0.800000*%
%TD*%
%TA.AperFunction,Conductor*%
%ADD32C,0.250000*%
%TD*%
%TA.AperFunction,Conductor*%
%ADD33C,0.500000*%
%TD*%
%TA.AperFunction,Conductor*%
%ADD34C,1.000000*%
%TD*%
%TA.AperFunction,Conductor*%
%ADD35C,0.254000*%
%TD*%
%TA.AperFunction,Conductor*%
%ADD36C,0.100000*%
%TD*%
G04 APERTURE END LIST*
%TO.P,C6,2*%
%TO.N,GND*%
%TA.AperFunction,SMDPad,CuDef*%
G36*
G01*
X102416000Y-107399000D02*
X102416000Y-107739000D01*
G75*
G02*
X102276000Y-107879000I-140000J0D01*
G01*
X101996000Y-107879000D01*
G75*
G02*
X101856000Y-107739000I0J140000D01*
G01*
X101856000Y-107399000D01*
G75*
G02*
X101996000Y-107259000I140000J0D01*
G01*
X102276000Y-107259000D01*
G75*
G02*
X102416000Y-107399000I0J-140000D01*
G01*
G37*
%TD.AperFunction*%
%TO.P,C6,1*%
%TO.N,+BATT*%
%TA.AperFunction,SMDPad,CuDef*%
G36*
G01*
X103376000Y-107399000D02*
X103376000Y-107739000D01*
G75*
G02*
X103236000Y-107879000I-140000J0D01*
G01*
X102956000Y-107879000D01*
G75*
G02*
X102816000Y-107739000I0J140000D01*
G01*
X102816000Y-107399000D01*
G75*
G02*
X102956000Y-107259000I140000J0D01*
G01*
X103236000Y-107259000D01*
G75*
G02*
X103376000Y-107399000I0J-140000D01*
G01*
G37*
%TD.AperFunction*%
%TD*%
%TO.P,J1,1*%
%TO.N,SWITCH*%
%TA.AperFunction,ComponentPad*%
G36*
G01*
X114644000Y-153758000D02*
X113194000Y-153758000D01*
G75*
G02*
X112944000Y-153508000I0J250000D01*
G01*
X112944000Y-152308000D01*
G75*
G02*
X113194000Y-152058000I250000J0D01*
G01*
X114644000Y-152058000D01*
G75*
G02*
X114894000Y-152308000I0J-250000D01*
G01*
X114894000Y-153508000D01*
G75*
G02*
X114644000Y-153758000I-250000J0D01*
G01*
G37*
%TD.AperFunction*%
D10*
%TO.P,J1,2*%
%TO.N,GND*%
X113919000Y-150408000D03*
%TO.P,J1,3*%
%TO.N,LED*%
X113919000Y-147908000D03*
%TO.P,J1,4*%
%TO.N,Net-(J1-Pad4)*%
X113919000Y-145408000D03*
%TD*%
D11*
%TO.P,U3,1*%
%TO.N,BOOST_EN*%
X105224000Y-105150000D03*
%TO.P,U3,2*%
%TO.N,BOOST_MOS*%
X105224000Y-105950000D03*
%TO.P,U3,3*%
%TO.N,Net-(U3-Pad3)*%
X105224000Y-106750000D03*
%TO.P,U3,4*%
%TO.N,+BATT*%
X105224000Y-107550000D03*
%TO.P,U3,5*%
%TO.N,GND*%
X105224000Y-108350000D03*
%TO.P,U3,6*%
%TO.N,Net-(U3-Pad6)*%
X105224000Y-109150000D03*
%TO.P,U3,7*%
%TO.N,Net-(U3-Pad7)*%
X105224000Y-109950000D03*
%TO.P,U3,8*%
%TO.N,Net-(U3-Pad8)*%
X105224000Y-110750000D03*
D12*
%TO.P,U3,9*%
%TO.N,HEATER_PWM*%
X106674000Y-112200000D03*
%TO.P,U3,10*%
%TO.N,Net-(U3-Pad10)*%
X107474000Y-112200000D03*
%TO.P,U3,11*%
%TO.N,Net-(U3-Pad11)*%
X108274000Y-112200000D03*
%TO.P,U3,12*%
%TO.N,Net-(U3-Pad12)*%
X109074000Y-112200000D03*
%TO.P,U3,13*%
%TO.N,Net-(U3-Pad13)*%
X109874000Y-112200000D03*
%TO.P,U3,14*%
%TO.N,LED*%
X110674000Y-112200000D03*
%TO.P,U3,15*%
%TO.N,MOSI*%
X111474000Y-112200000D03*
%TO.P,U3,16*%
%TO.N,MISO*%
X112274000Y-112200000D03*
D11*
%TO.P,U3,17*%
%TO.N,SCK*%
X113724000Y-110750000D03*
%TO.P,U3,18*%
%TO.N,+BATT*%
X113724000Y-109950000D03*
%TO.P,U3,19*%
%TO.N,Net-(U3-Pad19)*%
X113724000Y-109150000D03*
%TO.P,U3,20*%
%TO.N,Net-(C5-Pad1)*%
X113724000Y-108350000D03*
%TO.P,U3,21*%
%TO.N,GND*%
X113724000Y-107550000D03*
%TO.P,U3,22*%
%TO.N,Net-(U3-Pad22)*%
X113724000Y-106750000D03*
%TO.P,U3,23*%
%TO.N,BAT*%
X113724000Y-105950000D03*
%TO.P,U3,24*%
%TO.N,A1*%
X113724000Y-105150000D03*
D12*
%TO.P,U3,25*%
%TO.N,USB_DET*%
X112274000Y-103700000D03*
%TO.P,U3,26*%
%TO.N,Net-(U3-Pad26)*%
X111474000Y-103700000D03*
%TO.P,U3,27*%
%TO.N,Net-(U3-Pad27)*%
X110674000Y-103700000D03*
%TO.P,U3,28*%
%TO.N,Net-(U3-Pad28)*%
X109874000Y-103700000D03*
%TO.P,U3,29*%
%TO.N,~RST*%
X109074000Y-103700000D03*
%TO.P,U3,30*%
%TO.N,RX*%
X108274000Y-103700000D03*
%TO.P,U3,31*%
%TO.N,TX*%
X107474000Y-103700000D03*
%TO.P,U3,32*%
%TO.N,SWITCH*%
X106674000Y-103700000D03*
%TD*%
%TO.P,C1,2*%
%TO.N,GND*%
%TA.AperFunction,SMDPad,CuDef*%
G36*
G01*
X112645000Y-127310000D02*
X112145000Y-127310000D01*
G75*
G02*
X111920000Y-127085000I0J225000D01*
G01*
X111920000Y-126635000D01*
G75*
G02*
X112145000Y-126410000I225000J0D01*
G01*
X112645000Y-126410000D01*
G75*
G02*
X112870000Y-126635000I0J-225000D01*
G01*
X112870000Y-127085000D01*
G75*
G02*
X112645000Y-127310000I-225000J0D01*
G01*
G37*
%TD.AperFunction*%
%TO.P,C1,1*%
%TO.N,+5V*%
%TA.AperFunction,SMDPad,CuDef*%
G36*
G01*
X112645000Y-128860000D02*
X112145000Y-128860000D01*
G75*
G02*
X111920000Y-128635000I0J225000D01*
G01*
X111920000Y-128185000D01*
G75*
G02*
X112145000Y-127960000I225000J0D01*
G01*
X112645000Y-127960000D01*
G75*
G02*
X112870000Y-128185000I0J-225000D01*
G01*
X112870000Y-128635000D01*
G75*
G02*
X112645000Y-128860000I-225000J0D01*
G01*
G37*
%TD.AperFunction*%
%TD*%
%TO.P,C4,2*%
%TO.N,GND*%
%TA.AperFunction,SMDPad,CuDef*%
G36*
G01*
X113101000Y-141474000D02*
X113101000Y-140974000D01*
G75*
G02*
X113326000Y-140749000I225000J0D01*
G01*
X113776000Y-140749000D01*
G75*
G02*
X114001000Y-140974000I0J-225000D01*
G01*
X114001000Y-141474000D01*
G75*
G02*
X113776000Y-141699000I-225000J0D01*
G01*
X113326000Y-141699000D01*
G75*
G02*
X113101000Y-141474000I0J225000D01*
G01*
G37*
%TD.AperFunction*%
%TO.P,C4,1*%
%TO.N,+BATT*%
%TA.AperFunction,SMDPad,CuDef*%
G36*
G01*
X111551000Y-141474000D02*
X111551000Y-140974000D01*
G75*
G02*
X111776000Y-140749000I225000J0D01*
G01*
X112226000Y-140749000D01*
G75*
G02*
X112451000Y-140974000I0J-225000D01*
G01*
X112451000Y-141474000D01*
G75*
G02*
X112226000Y-141699000I-225000J0D01*
G01*
X111776000Y-141699000D01*
G75*
G02*
X111551000Y-141474000I0J225000D01*
G01*
G37*
%TD.AperFunction*%
%TD*%
%TO.P,C7,2*%
%TO.N,GND*%
%TA.AperFunction,SMDPad,CuDef*%
G36*
G01*
X107879000Y-139450000D02*
X107879000Y-139950000D01*
G75*
G02*
X107654000Y-140175000I-225000J0D01*
G01*
X107204000Y-140175000D01*
G75*
G02*
X106979000Y-139950000I0J225000D01*
G01*
X106979000Y-139450000D01*
G75*
G02*
X107204000Y-139225000I225000J0D01*
G01*
X107654000Y-139225000D01*
G75*
G02*
X107879000Y-139450000I0J-225000D01*
G01*
G37*
%TD.AperFunction*%
%TO.P,C7,1*%
%TO.N,+BATT*%
%TA.AperFunction,SMDPad,CuDef*%
G36*
G01*
X109429000Y-139450000D02*
X109429000Y-139950000D01*
G75*
G02*
X109204000Y-140175000I-225000J0D01*
G01*
X108754000Y-140175000D01*
G75*
G02*
X108529000Y-139950000I0J225000D01*
G01*
X108529000Y-139450000D01*
G75*
G02*
X108754000Y-139225000I225000J0D01*
G01*
X109204000Y-139225000D01*
G75*
G02*
X109429000Y-139450000I0J-225000D01*
G01*
G37*
%TD.AperFunction*%
%TD*%
%TO.P,C8,1*%
%TO.N,+BATT*%
%TA.AperFunction,SMDPad,CuDef*%
G36*
G01*
X109429000Y-140974000D02*
X109429000Y-141474000D01*
G75*
G02*
X109204000Y-141699000I-225000J0D01*
G01*
X108754000Y-141699000D01*
G75*
G02*
X108529000Y-141474000I0J225000D01*
G01*
X108529000Y-140974000D01*
G75*
G02*
X108754000Y-140749000I225000J0D01*
G01*
X109204000Y-140749000D01*
G75*
G02*
X109429000Y-140974000I0J-225000D01*
G01*
G37*
%TD.AperFunction*%
%TO.P,C8,2*%
%TO.N,GND*%
%TA.AperFunction,SMDPad,CuDef*%
G36*
G01*
X107879000Y-140974000D02*
X107879000Y-141474000D01*
G75*
G02*
X107654000Y-141699000I-225000J0D01*
G01*
X107204000Y-141699000D01*
G75*
G02*
X106979000Y-141474000I0J225000D01*
G01*
X106979000Y-140974000D01*
G75*
G02*
X107204000Y-140749000I225000J0D01*
G01*
X107654000Y-140749000D01*
G75*
G02*
X107879000Y-140974000I0J-225000D01*
G01*
G37*
%TD.AperFunction*%
%TD*%
%TO.P,C10,1*%
%TO.N,+VSW*%
%TA.AperFunction,SMDPad,CuDef*%
G36*
G01*
X106090000Y-130806000D02*
X106090000Y-130306000D01*
G75*
G02*
X106315000Y-130081000I225000J0D01*
G01*
X106765000Y-130081000D01*
G75*
G02*
X106990000Y-130306000I0J-225000D01*
G01*
X106990000Y-130806000D01*
G75*
G02*
X106765000Y-131031000I-225000J0D01*
G01*
X106315000Y-131031000D01*
G75*
G02*
X106090000Y-130806000I0J225000D01*
G01*
G37*
%TD.AperFunction*%
%TO.P,C10,2*%
%TO.N,GND*%
%TA.AperFunction,SMDPad,CuDef*%
G36*
G01*
X107640000Y-130806000D02*
X107640000Y-130306000D01*
G75*
G02*
X107865000Y-130081000I225000J0D01*
G01*
X108315000Y-130081000D01*
G75*
G02*
X108540000Y-130306000I0J-225000D01*
G01*
X108540000Y-130806000D01*
G75*
G02*
X108315000Y-131031000I-225000J0D01*
G01*
X107865000Y-131031000D01*
G75*
G02*
X107640000Y-130806000I0J225000D01*
G01*
G37*
%TD.AperFunction*%
%TD*%
D13*
%TO.P,U1,9*%
%TO.N,GND*%
X113000000Y-134305000D03*
X113000000Y-132395000D03*
X114300000Y-134305000D03*
X114300000Y-132395000D03*
X115600000Y-134305000D03*
X115600000Y-132395000D03*
D14*
X114300000Y-133350000D03*
%TO.P,U1,8*%
%TO.N,Net-(R2-Pad2)*%
%TA.AperFunction,SMDPad,CuDef*%
G36*
G01*
X116055000Y-135250000D02*
X116355000Y-135250000D01*
G75*
G02*
X116505000Y-135400000I0J-150000D01*
G01*
X116505000Y-136700000D01*
G75*
G02*
X116355000Y-136850000I-150000J0D01*
G01*
X116055000Y-136850000D01*
G75*
G02*
X115905000Y-136700000I0J150000D01*
G01*
X115905000Y-135400000D01*
G75*
G02*
X116055000Y-135250000I150000J0D01*
G01*
G37*
%TD.AperFunction*%
%TO.P,U1,7*%
%TO.N,Net-(R1-Pad1)*%
%TA.AperFunction,SMDPad,CuDef*%
G36*
G01*
X114785000Y-135250000D02*
X115085000Y-135250000D01*
G75*
G02*
X115235000Y-135400000I0J-150000D01*
G01*
X115235000Y-136700000D01*
G75*
G02*
X115085000Y-136850000I-150000J0D01*
G01*
X114785000Y-136850000D01*
G75*
G02*
X114635000Y-136700000I0J150000D01*
G01*
X114635000Y-135400000D01*
G75*
G02*
X114785000Y-135250000I150000J0D01*
G01*
G37*
%TD.AperFunction*%
%TO.P,U1,6*%
%TO.N,Net-(U1-Pad6)*%
%TA.AperFunction,SMDPad,CuDef*%
G36*
G01*
X113515000Y-135250000D02*
X113815000Y-135250000D01*
G75*
G02*
X113965000Y-135400000I0J-150000D01*
G01*
X113965000Y-136700000D01*
G75*
G02*
X113815000Y-136850000I-150000J0D01*
G01*
X113515000Y-136850000D01*
G75*
G02*
X113365000Y-136700000I0J150000D01*
G01*
X113365000Y-135400000D01*
G75*
G02*
X113515000Y-135250000I150000J0D01*
G01*
G37*
%TD.AperFunction*%
%TO.P,U1,5*%
%TO.N,+BATT*%
%TA.AperFunction,SMDPad,CuDef*%
G36*
G01*
X112245000Y-135250000D02*
X112545000Y-135250000D01*
G75*
G02*
X112695000Y-135400000I0J-150000D01*
G01*
X112695000Y-136700000D01*
G75*
G02*
X112545000Y-136850000I-150000J0D01*
G01*
X112245000Y-136850000D01*
G75*
G02*
X112095000Y-136700000I0J150000D01*
G01*
X112095000Y-135400000D01*
G75*
G02*
X112245000Y-135250000I150000J0D01*
G01*
G37*
%TD.AperFunction*%
%TO.P,U1,4*%
%TO.N,+5V*%
%TA.AperFunction,SMDPad,CuDef*%
G36*
G01*
X112245000Y-129850000D02*
X112545000Y-129850000D01*
G75*
G02*
X112695000Y-130000000I0J-150000D01*
G01*
X112695000Y-131300000D01*
G75*
G02*
X112545000Y-131450000I-150000J0D01*
G01*
X112245000Y-131450000D01*
G75*
G02*
X112095000Y-131300000I0J150000D01*
G01*
X112095000Y-130000000D01*
G75*
G02*
X112245000Y-129850000I150000J0D01*
G01*
G37*
%TD.AperFunction*%
%TO.P,U1,3*%
%TO.N,GND*%
%TA.AperFunction,SMDPad,CuDef*%
G36*
G01*
X113515000Y-129850000D02*
X113815000Y-129850000D01*
G75*
G02*
X113965000Y-130000000I0J-150000D01*
G01*
X113965000Y-131300000D01*
G75*
G02*
X113815000Y-131450000I-150000J0D01*
G01*
X113515000Y-131450000D01*
G75*
G02*
X113365000Y-131300000I0J150000D01*
G01*
X113365000Y-130000000D01*
G75*
G02*
X113515000Y-129850000I150000J0D01*
G01*
G37*
%TD.AperFunction*%
%TO.P,U1,2*%
%TO.N,Net-(R11-Pad1)*%
%TA.AperFunction,SMDPad,CuDef*%
G36*
G01*
X114785000Y-129850000D02*
X115085000Y-129850000D01*
G75*
G02*
X115235000Y-130000000I0J-150000D01*
G01*
X115235000Y-131300000D01*
G75*
G02*
X115085000Y-131450000I-150000J0D01*
G01*
X114785000Y-131450000D01*
G75*
G02*
X114635000Y-131300000I0J150000D01*
G01*
X114635000Y-130000000D01*
G75*
G02*
X114785000Y-129850000I150000J0D01*
G01*
G37*
%TD.AperFunction*%
%TO.P,U1,1*%
%TO.N,GND*%
%TA.AperFunction,SMDPad,CuDef*%
G36*
G01*
X116055000Y-129850000D02*
X116355000Y-129850000D01*
G75*
G02*
X116505000Y-130000000I0J-150000D01*
G01*
X116505000Y-131300000D01*
G75*
G02*
X116355000Y-131450000I-150000J0D01*
G01*
X116055000Y-131450000D01*
G75*
G02*
X115905000Y-131300000I0J150000D01*
G01*
X115905000Y-130000000D01*
G75*
G02*
X116055000Y-129850000I150000J0D01*
G01*
G37*
%TD.AperFunction*%
%TD*%
%TO.P,U2,1*%
%TO.N,GND*%
%TA.AperFunction,SMDPad,CuDef*%
G36*
G01*
X101275000Y-148105000D02*
X101275000Y-147805000D01*
G75*
G02*
X101425000Y-147655000I150000J0D01*
G01*
X102725000Y-147655000D01*
G75*
G02*
X102875000Y-147805000I0J-150000D01*
G01*
X102875000Y-148105000D01*
G75*
G02*
X102725000Y-148255000I-150000J0D01*
G01*
X101425000Y-148255000D01*
G75*
G02*
X101275000Y-148105000I0J150000D01*
G01*
G37*
%TD.AperFunction*%
%TO.P,U2,2*%
%TA.AperFunction,SMDPad,CuDef*%
G36*
G01*
X101275000Y-149375000D02*
X101275000Y-149075000D01*
G75*
G02*
X101425000Y-148925000I150000J0D01*
G01*
X102725000Y-148925000D01*
G75*
G02*
X102875000Y-149075000I0J-150000D01*
G01*
X102875000Y-149375000D01*
G75*
G02*
X102725000Y-149525000I-150000J0D01*
G01*
X101425000Y-149525000D01*
G75*
G02*
X101275000Y-149375000I0J150000D01*
G01*
G37*
%TD.AperFunction*%
%TO.P,U2,3*%
%TA.AperFunction,SMDPad,CuDef*%
G36*
G01*
X101275000Y-150645000D02*
X101275000Y-150345000D01*
G75*
G02*
X101425000Y-150195000I150000J0D01*
G01*
X102725000Y-150195000D01*
G75*
G02*
X102875000Y-150345000I0J-150000D01*
G01*
X102875000Y-150645000D01*
G75*
G02*
X102725000Y-150795000I-150000J0D01*
G01*
X101425000Y-150795000D01*
G75*
G02*
X101275000Y-150645000I0J150000D01*
G01*
G37*
%TD.AperFunction*%
%TO.P,U2,4*%
%TA.AperFunction,SMDPad,CuDef*%
G36*
G01*
X101275000Y-151915000D02*
X101275000Y-151615000D01*
G75*
G02*
X101425000Y-151465000I150000J0D01*
G01*
X102725000Y-151465000D01*
G75*
G02*
X102875000Y-151615000I0J-150000D01*
G01*
X102875000Y-151915000D01*
G75*
G02*
X102725000Y-152065000I-150000J0D01*
G01*
X101425000Y-152065000D01*
G75*
G02*
X101275000Y-151915000I0J150000D01*
G01*
G37*
%TD.AperFunction*%
%TO.P,U2,5*%
%TO.N,-BATT*%
%TA.AperFunction,SMDPad,CuDef*%
G36*
G01*
X106675000Y-151915000D02*
X106675000Y-151615000D01*
G75*
G02*
X106825000Y-151465000I150000J0D01*
G01*
X108125000Y-151465000D01*
G75*
G02*
X108275000Y-151615000I0J-150000D01*
G01*
X108275000Y-151915000D01*
G75*
G02*
X108125000Y-152065000I-150000J0D01*
G01*
X106825000Y-152065000D01*
G75*
G02*
X106675000Y-151915000I0J150000D01*
G01*
G37*
%TD.AperFunction*%
%TO.P,U2,6*%
%TO.N,Net-(C3-Pad1)*%
%TA.AperFunction,SMDPad,CuDef*%
G36*
G01*
X106675000Y-150645000D02*
X106675000Y-150345000D01*
G75*
G02*
X106825000Y-150195000I150000J0D01*
G01*
X108125000Y-150195000D01*
G75*
G02*
X108275000Y-150345000I0J-150000D01*
G01*
X108275000Y-150645000D01*
G75*
G02*
X108125000Y-150795000I-150000J0D01*
G01*
X106825000Y-150795000D01*
G75*
G02*
X106675000Y-150645000I0J150000D01*
G01*
G37*
%TD.AperFunction*%
%TO.P,U2,7*%
%TO.N,-BATT*%
%TA.AperFunction,SMDPad,CuDef*%
G36*
G01*
X106675000Y-149375000D02*
X106675000Y-149075000D01*
G75*
G02*
X106825000Y-148925000I150000J0D01*
G01*
X108125000Y-148925000D01*
G75*
G02*
X108275000Y-149075000I0J-150000D01*
G01*
X108275000Y-149375000D01*
G75*
G02*
X108125000Y-149525000I-150000J0D01*
G01*
X106825000Y-149525000D01*
G75*
G02*
X106675000Y-149375000I0J150000D01*
G01*
G37*
%TD.AperFunction*%
%TO.P,U2,8*%
%TA.AperFunction,SMDPad,CuDef*%
G36*
G01*
X106675000Y-148105000D02*
X106675000Y-147805000D01*
G75*
G02*
X106825000Y-147655000I150000J0D01*
G01*
X108125000Y-147655000D01*
G75*
G02*
X108275000Y-147805000I0J-150000D01*
G01*
X108275000Y-148105000D01*
G75*
G02*
X108125000Y-148255000I-150000J0D01*
G01*
X106825000Y-148255000D01*
G75*
G02*
X106675000Y-148105000I0J150000D01*
G01*
G37*
%TD.AperFunction*%
D15*
%TO.P,U2,9*%
X104775000Y-149860000D03*
D13*
X103820000Y-148560000D03*
X105730000Y-148560000D03*
X103820000Y-149860000D03*
X105730000Y-149860000D03*
X103820000Y-151160000D03*
X105730000Y-151160000D03*
%TD*%
D16*
%TO.P,U4,1*%
%TO.N,Net-(L1-Pad2)*%
X105140000Y-133653000D03*
%TO.P,U4,2*%
X104640000Y-133653000D03*
D17*
%TO.P,U4,3*%
%TO.N,+VSW*%
X104140000Y-133368000D03*
D16*
%TO.P,U4,4*%
X103640000Y-133653000D03*
D17*
%TO.P,U4,5*%
%TO.N,PG*%
X103140000Y-133368000D03*
D16*
%TO.P,U4,6*%
%TO.N,Net-(C9-Pad1)*%
X103140000Y-136603000D03*
%TO.P,U4,7*%
%TO.N,Net-(R17-Pad2)*%
X103640000Y-136603000D03*
D17*
%TO.P,U4,8*%
%TO.N,Net-(U4-Pad8)*%
X104140000Y-136888000D03*
%TO.P,U4,9*%
%TO.N,BOOST_EN*%
X104640000Y-136888000D03*
%TO.P,U4,10*%
%TO.N,+BATT*%
X105140000Y-136888000D03*
D18*
%TO.P,U4,11*%
%TO.N,GND*%
X104775000Y-134678000D03*
D19*
X105690000Y-134878000D03*
D20*
X105770000Y-134878000D03*
D19*
X105690000Y-135378000D03*
X102590000Y-134878000D03*
X102590000Y-135378000D03*
D20*
X105770000Y-135378000D03*
X102510000Y-134878000D03*
X102510000Y-135378000D03*
D18*
X104775000Y-135578000D03*
X103505000Y-134678000D03*
X103505000Y-135578000D03*
D21*
X104140000Y-135128000D03*
D17*
%TO.P,U4,1*%
%TO.N,Net-(L1-Pad2)*%
X105140000Y-133368000D03*
%TO.P,U4,2*%
X104640000Y-133368000D03*
D16*
%TO.P,U4,3*%
%TO.N,+VSW*%
X104140000Y-133653000D03*
D17*
%TO.P,U4,4*%
X103640000Y-133368000D03*
D16*
%TO.P,U4,5*%
%TO.N,PG*%
X103140000Y-133653000D03*
D17*
%TO.P,U4,6*%
%TO.N,Net-(C9-Pad1)*%
X103140000Y-136888000D03*
%TO.P,U4,7*%
%TO.N,Net-(R17-Pad2)*%
X103640000Y-136888000D03*
D16*
%TO.P,U4,8*%
%TO.N,Net-(U4-Pad8)*%
X104140000Y-136603000D03*
%TO.P,U4,9*%
%TO.N,BOOST_EN*%
X104640000Y-136603000D03*
%TO.P,U4,10*%
%TO.N,+BATT*%
X105140000Y-136603000D03*
D22*
%TO.P,U4,11*%
%TO.N,GND*%
X103390000Y-135628000D03*
X104140000Y-135128000D03*
X104890000Y-135628000D03*
X104890000Y-134628000D03*
X103390000Y-134628000D03*
%TD*%
%TO.P,D1,1*%
%TO.N,Net-(D1-Pad1)*%
%TA.AperFunction,SMDPad,CuDef*%
G36*
G01*
X116715250Y-128860000D02*
X116202750Y-128860000D01*
G75*
G02*
X115984000Y-128641250I0J218750D01*
G01*
X115984000Y-128203750D01*
G75*
G02*
X116202750Y-127985000I218750J0D01*
G01*
X116715250Y-127985000D01*
G75*
G02*
X116934000Y-128203750I0J-218750D01*
G01*
X116934000Y-128641250D01*
G75*
G02*
X116715250Y-128860000I-218750J0D01*
G01*
G37*
%TD.AperFunction*%
%TO.P,D1,2*%
%TO.N,+5V*%
%TA.AperFunction,SMDPad,CuDef*%
G36*
G01*
X116715250Y-127285000D02*
X116202750Y-127285000D01*
G75*
G02*
X115984000Y-127066250I0J218750D01*
G01*
X115984000Y-126628750D01*
G75*
G02*
X116202750Y-126410000I218750J0D01*
G01*
X116715250Y-126410000D01*
G75*
G02*
X116934000Y-126628750I0J-218750D01*
G01*
X116934000Y-127066250D01*
G75*
G02*
X116715250Y-127285000I-218750J0D01*
G01*
G37*
%TD.AperFunction*%
%TD*%
D23*
%TO.P,Q2,1*%
%TO.N,HEATER_PWM*%
X108315000Y-127442000D03*
%TO.P,Q2,2*%
%TO.N,GND*%
X108315000Y-125542000D03*
%TO.P,Q2,3*%
%TO.N,Net-(J4-Pad1)*%
X106315000Y-126492000D03*
%TD*%
D24*
%TO.P,J2,2*%
%TO.N,-BATT*%
X104434000Y-145288000D03*
%TO.P,J2,1*%
%TO.N,+BATT*%
%TA.AperFunction,ComponentPad*%
G36*
G01*
X107784000Y-144538000D02*
X107784000Y-146038000D01*
G75*
G02*
X107534000Y-146288000I-250000J0D01*
G01*
X106334000Y-146288000D01*
G75*
G02*
X106084000Y-146038000I0J250000D01*
G01*
X106084000Y-144538000D01*
G75*
G02*
X106334000Y-144288000I250000J0D01*
G01*
X107534000Y-144288000D01*
G75*
G02*
X107784000Y-144538000I0J-250000D01*
G01*
G37*
%TD.AperFunction*%
%TD*%
%TO.P,J4,1*%
%TO.N,Net-(J4-Pad1)*%
%TA.AperFunction,ComponentPad*%
G36*
G01*
X103263000Y-125515000D02*
X104763000Y-125515000D01*
G75*
G02*
X105013000Y-125765000I0J-250000D01*
G01*
X105013000Y-126965000D01*
G75*
G02*
X104763000Y-127215000I-250000J0D01*
G01*
X103263000Y-127215000D01*
G75*
G02*
X103013000Y-126965000I0J250000D01*
G01*
X103013000Y-125765000D01*
G75*
G02*
X103263000Y-125515000I250000J0D01*
G01*
G37*
%TD.AperFunction*%
D25*
%TO.P,J4,2*%
%TO.N,+VSW*%
X104013000Y-128865000D03*
%TD*%
%TO.P,R1,1*%
%TO.N,Net-(R1-Pad1)*%
%TA.AperFunction,SMDPad,CuDef*%
G36*
G01*
X113480000Y-138031000D02*
X113850000Y-138031000D01*
G75*
G02*
X113985000Y-138166000I0J-135000D01*
G01*
X113985000Y-138436000D01*
G75*
G02*
X113850000Y-138571000I-135000J0D01*
G01*
X113480000Y-138571000D01*
G75*
G02*
X113345000Y-138436000I0J135000D01*
G01*
X113345000Y-138166000D01*
G75*
G02*
X113480000Y-138031000I135000J0D01*
G01*
G37*
%TD.AperFunction*%
%TO.P,R1,2*%
%TO.N,Net-(D1-Pad1)*%
%TA.AperFunction,SMDPad,CuDef*%
G36*
G01*
X113480000Y-139051000D02*
X113850000Y-139051000D01*
G75*
G02*
X113985000Y-139186000I0J-135000D01*
G01*
X113985000Y-139456000D01*
G75*
G02*
X113850000Y-139591000I-135000J0D01*
G01*
X113480000Y-139591000D01*
G75*
G02*
X113345000Y-139456000I0J135000D01*
G01*
X113345000Y-139186000D01*
G75*
G02*
X113480000Y-139051000I135000J0D01*
G01*
G37*
%TD.AperFunction*%
%TD*%
%TO.P,R2,1*%
%TO.N,+5V*%
%TA.AperFunction,SMDPad,CuDef*%
G36*
G01*
X115120000Y-139591000D02*
X114750000Y-139591000D01*
G75*
G02*
X114615000Y-139456000I0J135000D01*
G01*
X114615000Y-139186000D01*
G75*
G02*
X114750000Y-139051000I135000J0D01*
G01*
X115120000Y-139051000D01*
G75*
G02*
X115255000Y-139186000I0J-135000D01*
G01*
X115255000Y-139456000D01*
G75*
G02*
X115120000Y-139591000I-135000J0D01*
G01*
G37*
%TD.AperFunction*%
%TO.P,R2,2*%
%TO.N,Net-(R2-Pad2)*%
%TA.AperFunction,SMDPad,CuDef*%
G36*
G01*
X115120000Y-138571000D02*
X114750000Y-138571000D01*
G75*
G02*
X114615000Y-138436000I0J135000D01*
G01*
X114615000Y-138166000D01*
G75*
G02*
X114750000Y-138031000I135000J0D01*
G01*
X115120000Y-138031000D01*
G75*
G02*
X115255000Y-138166000I0J-135000D01*
G01*
X115255000Y-138436000D01*
G75*
G02*
X115120000Y-138571000I-135000J0D01*
G01*
G37*
%TD.AperFunction*%
%TD*%
%TO.P,R4,2*%
%TO.N,+VSW*%
%TA.AperFunction,SMDPad,CuDef*%
G36*
G01*
X114695000Y-143452000D02*
X114695000Y-143822000D01*
G75*
G02*
X114560000Y-143957000I-135000J0D01*
G01*
X114290000Y-143957000D01*
G75*
G02*
X114155000Y-143822000I0J135000D01*
G01*
X114155000Y-143452000D01*
G75*
G02*
X114290000Y-143317000I135000J0D01*
G01*
X114560000Y-143317000D01*
G75*
G02*
X114695000Y-143452000I0J-135000D01*
G01*
G37*
%TD.AperFunction*%
%TO.P,R4,1*%
%TO.N,Net-(J1-Pad4)*%
%TA.AperFunction,SMDPad,CuDef*%
G36*
G01*
X115715000Y-143452000D02*
X115715000Y-143822000D01*
G75*
G02*
X115580000Y-143957000I-135000J0D01*
G01*
X115310000Y-143957000D01*
G75*
G02*
X115175000Y-143822000I0J135000D01*
G01*
X115175000Y-143452000D01*
G75*
G02*
X115310000Y-143317000I135000J0D01*
G01*
X115580000Y-143317000D01*
G75*
G02*
X115715000Y-143452000I0J-135000D01*
G01*
G37*
%TD.AperFunction*%
%TD*%
%TO.P,R9,2*%
%TO.N,GND*%
%TA.AperFunction,SMDPad,CuDef*%
G36*
G01*
X114032000Y-121946000D02*
X114032000Y-121576000D01*
G75*
G02*
X114167000Y-121441000I135000J0D01*
G01*
X114437000Y-121441000D01*
G75*
G02*
X114572000Y-121576000I0J-135000D01*
G01*
X114572000Y-121946000D01*
G75*
G02*
X114437000Y-122081000I-135000J0D01*
G01*
X114167000Y-122081000D01*
G75*
G02*
X114032000Y-121946000I0J135000D01*
G01*
G37*
%TD.AperFunction*%
%TO.P,R9,1*%
%TO.N,Net-(J3-PadB5)*%
%TA.AperFunction,SMDPad,CuDef*%
G36*
G01*
X113012000Y-121946000D02*
X113012000Y-121576000D01*
G75*
G02*
X113147000Y-121441000I135000J0D01*
G01*
X113417000Y-121441000D01*
G75*
G02*
X113552000Y-121576000I0J-135000D01*
G01*
X113552000Y-121946000D01*
G75*
G02*
X113417000Y-122081000I-135000J0D01*
G01*
X113147000Y-122081000D01*
G75*
G02*
X113012000Y-121946000I0J135000D01*
G01*
G37*
%TD.AperFunction*%
%TD*%
%TO.P,R11,2*%
%TO.N,GND*%
%TA.AperFunction,SMDPad,CuDef*%
G36*
G01*
X115120000Y-128030000D02*
X114750000Y-128030000D01*
G75*
G02*
X114615000Y-127895000I0J135000D01*
G01*
X114615000Y-127625000D01*
G75*
G02*
X114750000Y-127490000I135000J0D01*
G01*
X115120000Y-127490000D01*
G75*
G02*
X115255000Y-127625000I0J-135000D01*
G01*
X115255000Y-127895000D01*
G75*
G02*
X115120000Y-128030000I-135000J0D01*
G01*
G37*
%TD.AperFunction*%
%TO.P,R11,1*%
%TO.N,Net-(R11-Pad1)*%
%TA.AperFunction,SMDPad,CuDef*%
G36*
G01*
X115120000Y-129050000D02*
X114750000Y-129050000D01*
G75*
G02*
X114615000Y-128915000I0J135000D01*
G01*
X114615000Y-128645000D01*
G75*
G02*
X114750000Y-128510000I135000J0D01*
G01*
X115120000Y-128510000D01*
G75*
G02*
X115255000Y-128645000I0J-135000D01*
G01*
X115255000Y-128915000D01*
G75*
G02*
X115120000Y-129050000I-135000J0D01*
G01*
G37*
%TD.AperFunction*%
%TD*%
%TO.P,R12,1*%
%TO.N,+BATT*%
%TA.AperFunction,SMDPad,CuDef*%
G36*
G01*
X109075000Y-149410000D02*
X109075000Y-149040000D01*
G75*
G02*
X109210000Y-148905000I135000J0D01*
G01*
X109480000Y-148905000D01*
G75*
G02*
X109615000Y-149040000I0J-135000D01*
G01*
X109615000Y-149410000D01*
G75*
G02*
X109480000Y-149545000I-135000J0D01*
G01*
X109210000Y-149545000D01*
G75*
G02*
X109075000Y-149410000I0J135000D01*
G01*
G37*
%TD.AperFunction*%
%TO.P,R12,2*%
%TO.N,Net-(C3-Pad1)*%
%TA.AperFunction,SMDPad,CuDef*%
G36*
G01*
X110095000Y-149410000D02*
X110095000Y-149040000D01*
G75*
G02*
X110230000Y-148905000I135000J0D01*
G01*
X110500000Y-148905000D01*
G75*
G02*
X110635000Y-149040000I0J-135000D01*
G01*
X110635000Y-149410000D01*
G75*
G02*
X110500000Y-149545000I-135000J0D01*
G01*
X110230000Y-149545000D01*
G75*
G02*
X110095000Y-149410000I0J135000D01*
G01*
G37*
%TD.AperFunction*%
%TD*%
%TO.P,R13,1*%
%TO.N,Net-(J3-PadA5)*%
%TA.AperFunction,SMDPad,CuDef*%
G36*
G01*
X113012000Y-119660000D02*
X113012000Y-119290000D01*
G75*
G02*
X113147000Y-119155000I135000J0D01*
G01*
X113417000Y-119155000D01*
G75*
G02*
X113552000Y-119290000I0J-135000D01*
G01*
X113552000Y-119660000D01*
G75*
G02*
X113417000Y-119795000I-135000J0D01*
G01*
X113147000Y-119795000D01*
G75*
G02*
X113012000Y-119660000I0J135000D01*
G01*
G37*
%TD.AperFunction*%
%TO.P,R13,2*%
%TO.N,GND*%
%TA.AperFunction,SMDPad,CuDef*%
G36*
G01*
X114032000Y-119660000D02*
X114032000Y-119290000D01*
G75*
G02*
X114167000Y-119155000I135000J0D01*
G01*
X114437000Y-119155000D01*
G75*
G02*
X114572000Y-119290000I0J-135000D01*
G01*
X114572000Y-119660000D01*
G75*
G02*
X114437000Y-119795000I-135000J0D01*
G01*
X114167000Y-119795000D01*
G75*
G02*
X114032000Y-119660000I0J135000D01*
G01*
G37*
%TD.AperFunction*%
%TD*%
%TO.P,R14,1*%
%TO.N,GND*%
%TA.AperFunction,SMDPad,CuDef*%
G36*
G01*
X108095000Y-128847000D02*
X108095000Y-129217000D01*
G75*
G02*
X107960000Y-129352000I-135000J0D01*
G01*
X107690000Y-129352000D01*
G75*
G02*
X107555000Y-129217000I0J135000D01*
G01*
X107555000Y-128847000D01*
G75*
G02*
X107690000Y-128712000I135000J0D01*
G01*
X107960000Y-128712000D01*
G75*
G02*
X108095000Y-128847000I0J-135000D01*
G01*
G37*
%TD.AperFunction*%
%TO.P,R14,2*%
%TO.N,HEATER_PWM*%
%TA.AperFunction,SMDPad,CuDef*%
G36*
G01*
X107075000Y-128847000D02*
X107075000Y-129217000D01*
G75*
G02*
X106940000Y-129352000I-135000J0D01*
G01*
X106670000Y-129352000D01*
G75*
G02*
X106535000Y-129217000I0J135000D01*
G01*
X106535000Y-128847000D01*
G75*
G02*
X106670000Y-128712000I135000J0D01*
G01*
X106940000Y-128712000D01*
G75*
G02*
X107075000Y-128847000I0J-135000D01*
G01*
G37*
%TD.AperFunction*%
%TD*%
%TO.P,R15,2*%
%TO.N,GND*%
%TA.AperFunction,SMDPad,CuDef*%
G36*
G01*
X104463000Y-138924000D02*
X104833000Y-138924000D01*
G75*
G02*
X104968000Y-139059000I0J-135000D01*
G01*
X104968000Y-139329000D01*
G75*
G02*
X104833000Y-139464000I-135000J0D01*
G01*
X104463000Y-139464000D01*
G75*
G02*
X104328000Y-139329000I0J135000D01*
G01*
X104328000Y-139059000D01*
G75*
G02*
X104463000Y-138924000I135000J0D01*
G01*
G37*
%TD.AperFunction*%
%TO.P,R15,1*%
%TO.N,BOOST_EN*%
%TA.AperFunction,SMDPad,CuDef*%
G36*
G01*
X104463000Y-137904000D02*
X104833000Y-137904000D01*
G75*
G02*
X104968000Y-138039000I0J-135000D01*
G01*
X104968000Y-138309000D01*
G75*
G02*
X104833000Y-138444000I-135000J0D01*
G01*
X104463000Y-138444000D01*
G75*
G02*
X104328000Y-138309000I0J135000D01*
G01*
X104328000Y-138039000D01*
G75*
G02*
X104463000Y-137904000I135000J0D01*
G01*
G37*
%TD.AperFunction*%
%TD*%
%TO.P,R17,1*%
%TO.N,+VSW*%
%TA.AperFunction,SMDPad,CuDef*%
G36*
G01*
X102801000Y-139464000D02*
X102431000Y-139464000D01*
G75*
G02*
X102296000Y-139329000I0J135000D01*
G01*
X102296000Y-139059000D01*
G75*
G02*
X102431000Y-138924000I135000J0D01*
G01*
X102801000Y-138924000D01*
G75*
G02*
X102936000Y-139059000I0J-135000D01*
G01*
X102936000Y-139329000D01*
G75*
G02*
X102801000Y-139464000I-135000J0D01*
G01*
G37*
%TD.AperFunction*%
%TO.P,R17,2*%
%TO.N,Net-(R17-Pad2)*%
%TA.AperFunction,SMDPad,CuDef*%
G36*
G01*
X102801000Y-138444000D02*
X102431000Y-138444000D01*
G75*
G02*
X102296000Y-138309000I0J135000D01*
G01*
X102296000Y-138039000D01*
G75*
G02*
X102431000Y-137904000I135000J0D01*
G01*
X102801000Y-137904000D01*
G75*
G02*
X102936000Y-138039000I0J-135000D01*
G01*
X102936000Y-138309000D01*
G75*
G02*
X102801000Y-138444000I-135000J0D01*
G01*
G37*
%TD.AperFunction*%
%TD*%
%TO.P,R18,2*%
%TO.N,GND*%
%TA.AperFunction,SMDPad,CuDef*%
G36*
G01*
X103447000Y-138924000D02*
X103817000Y-138924000D01*
G75*
G02*
X103952000Y-139059000I0J-135000D01*
G01*
X103952000Y-139329000D01*
G75*
G02*
X103817000Y-139464000I-135000J0D01*
G01*
X103447000Y-139464000D01*
G75*
G02*
X103312000Y-139329000I0J135000D01*
G01*
X103312000Y-139059000D01*
G75*
G02*
X103447000Y-138924000I135000J0D01*
G01*
G37*
%TD.AperFunction*%
%TO.P,R18,1*%
%TO.N,Net-(R17-Pad2)*%
%TA.AperFunction,SMDPad,CuDef*%
G36*
G01*
X103447000Y-137904000D02*
X103817000Y-137904000D01*
G75*
G02*
X103952000Y-138039000I0J-135000D01*
G01*
X103952000Y-138309000D01*
G75*
G02*
X103817000Y-138444000I-135000J0D01*
G01*
X103447000Y-138444000D01*
G75*
G02*
X103312000Y-138309000I0J135000D01*
G01*
X103312000Y-138039000D01*
G75*
G02*
X103447000Y-137904000I135000J0D01*
G01*
G37*
%TD.AperFunction*%
%TD*%
%TO.P,C3,1*%
%TO.N,Net-(C3-Pad1)*%
%TA.AperFunction,SMDPad,CuDef*%
G36*
G01*
X109095000Y-150665000D02*
X109095000Y-150325000D01*
G75*
G02*
X109235000Y-150185000I140000J0D01*
G01*
X109515000Y-150185000D01*
G75*
G02*
X109655000Y-150325000I0J-140000D01*
G01*
X109655000Y-150665000D01*
G75*
G02*
X109515000Y-150805000I-140000J0D01*
G01*
X109235000Y-150805000D01*
G75*
G02*
X109095000Y-150665000I0J140000D01*
G01*
G37*
%TD.AperFunction*%
%TO.P,C3,2*%
%TO.N,-BATT*%
%TA.AperFunction,SMDPad,CuDef*%
G36*
G01*
X110055000Y-150665000D02*
X110055000Y-150325000D01*
G75*
G02*
X110195000Y-150185000I140000J0D01*
G01*
X110475000Y-150185000D01*
G75*
G02*
X110615000Y-150325000I0J-140000D01*
G01*
X110615000Y-150665000D01*
G75*
G02*
X110475000Y-150805000I-140000J0D01*
G01*
X110195000Y-150805000D01*
G75*
G02*
X110055000Y-150665000I0J140000D01*
G01*
G37*
%TD.AperFunction*%
%TD*%
%TO.P,C5,1*%
%TO.N,Net-(C5-Pad1)*%
%TA.AperFunction,SMDPad,CuDef*%
G36*
G01*
X115318000Y-108628000D02*
X115318000Y-108288000D01*
G75*
G02*
X115458000Y-108148000I140000J0D01*
G01*
X115738000Y-108148000D01*
G75*
G02*
X115878000Y-108288000I0J-140000D01*
G01*
X115878000Y-108628000D01*
G75*
G02*
X115738000Y-108768000I-140000J0D01*
G01*
X115458000Y-108768000D01*
G75*
G02*
X115318000Y-108628000I0J140000D01*
G01*
G37*
%TD.AperFunction*%
%TO.P,C5,2*%
%TO.N,GND*%
%TA.AperFunction,SMDPad,CuDef*%
G36*
G01*
X116278000Y-108628000D02*
X116278000Y-108288000D01*
G75*
G02*
X116418000Y-108148000I140000J0D01*
G01*
X116698000Y-108148000D01*
G75*
G02*
X116838000Y-108288000I0J-140000D01*
G01*
X116838000Y-108628000D01*
G75*
G02*
X116698000Y-108768000I-140000J0D01*
G01*
X116418000Y-108768000D01*
G75*
G02*
X116278000Y-108628000I0J140000D01*
G01*
G37*
%TD.AperFunction*%
%TD*%
%TO.P,C9,2*%
%TO.N,GND*%
%TA.AperFunction,SMDPad,CuDef*%
G36*
G01*
X101430000Y-138884000D02*
X101770000Y-138884000D01*
G75*
G02*
X101910000Y-139024000I0J-140000D01*
G01*
X101910000Y-139304000D01*
G75*
G02*
X101770000Y-139444000I-140000J0D01*
G01*
X101430000Y-139444000D01*
G75*
G02*
X101290000Y-139304000I0J140000D01*
G01*
X101290000Y-139024000D01*
G75*
G02*
X101430000Y-138884000I140000J0D01*
G01*
G37*
%TD.AperFunction*%
%TO.P,C9,1*%
%TO.N,Net-(C9-Pad1)*%
%TA.AperFunction,SMDPad,CuDef*%
G36*
G01*
X101430000Y-137924000D02*
X101770000Y-137924000D01*
G75*
G02*
X101910000Y-138064000I0J-140000D01*
G01*
X101910000Y-138344000D01*
G75*
G02*
X101770000Y-138484000I-140000J0D01*
G01*
X101430000Y-138484000D01*
G75*
G02*
X101290000Y-138344000I0J140000D01*
G01*
X101290000Y-138064000D01*
G75*
G02*
X101430000Y-137924000I140000J0D01*
G01*
G37*
%TD.AperFunction*%
%TD*%
%TO.P,C11,2*%
%TO.N,GND*%
%TA.AperFunction,SMDPad,CuDef*%
G36*
G01*
X116278000Y-110152000D02*
X116278000Y-109812000D01*
G75*
G02*
X116418000Y-109672000I140000J0D01*
G01*
X116698000Y-109672000D01*
G75*
G02*
X116838000Y-109812000I0J-140000D01*
G01*
X116838000Y-110152000D01*
G75*
G02*
X116698000Y-110292000I-140000J0D01*
G01*
X116418000Y-110292000D01*
G75*
G02*
X116278000Y-110152000I0J140000D01*
G01*
G37*
%TD.AperFunction*%
%TO.P,C11,1*%
%TO.N,+BATT*%
%TA.AperFunction,SMDPad,CuDef*%
G36*
G01*
X115318000Y-110152000D02*
X115318000Y-109812000D01*
G75*
G02*
X115458000Y-109672000I140000J0D01*
G01*
X115738000Y-109672000D01*
G75*
G02*
X115878000Y-109812000I0J-140000D01*
G01*
X115878000Y-110152000D01*
G75*
G02*
X115738000Y-110292000I-140000J0D01*
G01*
X115458000Y-110292000D01*
G75*
G02*
X115318000Y-110152000I0J140000D01*
G01*
G37*
%TD.AperFunction*%
%TD*%
D26*
%TO.P,J3,S1*%
%TO.N,GND*%
X115824000Y-124684000D03*
X115824000Y-116044000D03*
X111644000Y-124684000D03*
X111644000Y-116044000D03*
%TD*%
D27*
%TO.P,J5,1*%
%TO.N,MISO*%
X107188000Y-121412000D03*
D28*
%TO.P,J5,2*%
%TO.N,Net-(J5-Pad2)*%
X107188000Y-118872000D03*
%TO.P,J5,3*%
%TO.N,SCK*%
X104648000Y-121412000D03*
%TO.P,J5,4*%
%TO.N,MOSI*%
X104648000Y-118872000D03*
%TO.P,J5,5*%
%TO.N,~RST*%
X102108000Y-121412000D03*
%TO.P,J5,6*%
%TO.N,GND*%
X102108000Y-118872000D03*
%TD*%
D29*
%TO.P,L1,1*%
%TO.N,+BATT*%
X108712000Y-137378000D03*
%TO.P,L1,2*%
%TO.N,Net-(L1-Pad2)*%
X108712000Y-132878000D03*
%TD*%
%TO.P,R3,2*%
%TO.N,BAT*%
%TA.AperFunction,SMDPad,CuDef*%
G36*
G01*
X116318000Y-105087000D02*
X116318000Y-104717000D01*
G75*
G02*
X116453000Y-104582000I135000J0D01*
G01*
X116723000Y-104582000D01*
G75*
G02*
X116858000Y-104717000I0J-135000D01*
G01*
X116858000Y-105087000D01*
G75*
G02*
X116723000Y-105222000I-135000J0D01*
G01*
X116453000Y-105222000D01*
G75*
G02*
X116318000Y-105087000I0J135000D01*
G01*
G37*
%TD.AperFunction*%
%TO.P,R3,1*%
%TO.N,+BATT*%
%TA.AperFunction,SMDPad,CuDef*%
G36*
G01*
X115298000Y-105087000D02*
X115298000Y-104717000D01*
G75*
G02*
X115433000Y-104582000I135000J0D01*
G01*
X115703000Y-104582000D01*
G75*
G02*
X115838000Y-104717000I0J-135000D01*
G01*
X115838000Y-105087000D01*
G75*
G02*
X115703000Y-105222000I-135000J0D01*
G01*
X115433000Y-105222000D01*
G75*
G02*
X115298000Y-105087000I0J135000D01*
G01*
G37*
%TD.AperFunction*%
%TD*%
%TO.P,R5,1*%
%TO.N,BAT*%
%TA.AperFunction,SMDPad,CuDef*%
G36*
G01*
X115298000Y-106103000D02*
X115298000Y-105733000D01*
G75*
G02*
X115433000Y-105598000I135000J0D01*
G01*
X115703000Y-105598000D01*
G75*
G02*
X115838000Y-105733000I0J-135000D01*
G01*
X115838000Y-106103000D01*
G75*
G02*
X115703000Y-106238000I-135000J0D01*
G01*
X115433000Y-106238000D01*
G75*
G02*
X115298000Y-106103000I0J135000D01*
G01*
G37*
%TD.AperFunction*%
%TO.P,R5,2*%
%TO.N,GND*%
%TA.AperFunction,SMDPad,CuDef*%
G36*
G01*
X116318000Y-106103000D02*
X116318000Y-105733000D01*
G75*
G02*
X116453000Y-105598000I135000J0D01*
G01*
X116723000Y-105598000D01*
G75*
G02*
X116858000Y-105733000I0J-135000D01*
G01*
X116858000Y-106103000D01*
G75*
G02*
X116723000Y-106238000I-135000J0D01*
G01*
X116453000Y-106238000D01*
G75*
G02*
X116318000Y-106103000I0J135000D01*
G01*
G37*
%TD.AperFunction*%
%TD*%
D30*
%TO.N,SWITCH*%
X107950000Y-109982000D03*
%TO.N,+BATT*%
X112014000Y-109943997D03*
X107315000Y-107569000D03*
X109699000Y-107569000D03*
X113919000Y-104267000D03*
X112395000Y-105000002D03*
%TO.N,+VSW*%
X102870000Y-140150011D03*
X103632000Y-141400011D03*
X107696000Y-142494000D03*
X113411000Y-142494000D03*
%TO.N,+5V*%
X114046000Y-125222000D03*
X114046000Y-125984000D03*
X114046000Y-124460000D03*
X116574980Y-137648835D03*
X117024990Y-125984000D03*
%TO.N,Net-(J3-PadB5)*%
X112014000Y-121761000D03*
%TO.N,LED*%
X112014000Y-110744000D03*
X116332000Y-110998000D03*
%TO.N,Net-(J3-PadA5)*%
X112014000Y-119475000D03*
%TO.N,HEATER_PWM*%
X106680000Y-116967000D03*
X107315000Y-123698000D03*
%TO.N,SCK*%
X109963498Y-113508743D03*
X113284000Y-113538000D03*
%TO.N,~RST*%
X109093000Y-110744000D03*
X106045000Y-113792000D03*
%TO.N,GND*%
X101600000Y-139700000D03*
X103632000Y-139700000D03*
X104648000Y-139700000D03*
X106680000Y-141224000D03*
X106680000Y-139700000D03*
X108839000Y-130556000D03*
X108331000Y-129032000D03*
X114300000Y-141224000D03*
D31*
X109093000Y-125476000D03*
X108331000Y-126238000D03*
X108331000Y-124714000D03*
D30*
X100711000Y-147955000D03*
X100711000Y-148717000D03*
X100711000Y-149479000D03*
X100711000Y-150241000D03*
X100711000Y-151003000D03*
X100711000Y-151765000D03*
X102075000Y-147353000D03*
X102075000Y-152367000D03*
X117094000Y-108458000D03*
X117094000Y-109982000D03*
X114935000Y-127000000D03*
X113284000Y-126873000D03*
X112395000Y-125984000D03*
X115062000Y-121761000D03*
X115062000Y-119475000D03*
X117094000Y-105918000D03*
X103886000Y-108331000D03*
X115062000Y-107569000D03*
X101600000Y-107569000D03*
%TD*%
D32*
%TO.N,-BATT*%
X109375000Y-151765000D02*
X107475000Y-151765000D01*
X110335000Y-150805000D02*
X109375000Y-151765000D01*
X110335000Y-150495000D02*
X110335000Y-150805000D01*
%TO.N,SWITCH*%
X107950000Y-107278998D02*
X107950000Y-109982000D01*
X106674000Y-103700000D02*
X106674000Y-106002998D01*
X106674000Y-106002998D02*
X107950000Y-107278998D01*
%TO.N,Net-(C3-Pad1)*%
X107475000Y-150495000D02*
X109375000Y-150495000D01*
X109375000Y-150215000D02*
X110365000Y-149225000D01*
X109375000Y-150495000D02*
X109375000Y-150215000D01*
D33*
%TO.N,+BATT*%
X113724000Y-109950000D02*
X115284000Y-109950000D01*
D32*
X112020003Y-109950000D02*
X112014000Y-109943997D01*
X115316000Y-109982000D02*
X115284000Y-109950000D01*
X115598000Y-109982000D02*
X115316000Y-109982000D01*
D33*
X115284000Y-110044002D02*
X115316000Y-110076002D01*
X115284000Y-109950000D02*
X115284000Y-110044002D01*
D32*
X105370000Y-107696000D02*
X105224000Y-107550000D01*
X105140000Y-136603000D02*
X105140000Y-137398000D01*
X105140000Y-137398000D02*
X105410000Y-137668000D01*
X108422000Y-137668000D02*
X108712000Y-137378000D01*
X105410000Y-137668000D02*
X108422000Y-137668000D01*
D33*
X110143990Y-126018990D02*
X110490000Y-126365000D01*
X115598000Y-109982000D02*
X115570000Y-110010000D01*
X110143990Y-115640138D02*
X110143990Y-126018990D01*
X110490000Y-126365000D02*
X110490000Y-135890000D01*
X115570000Y-110010000D02*
X115570000Y-112776000D01*
X115570000Y-112776000D02*
X113284000Y-115062000D01*
X110722128Y-115062000D02*
X110143990Y-115640138D01*
X113284000Y-115062000D02*
X110722128Y-115062000D01*
D32*
X105224000Y-107550000D02*
X107296000Y-107550000D01*
X107296000Y-107550000D02*
X107315000Y-107569000D01*
X112014000Y-109884000D02*
X112014000Y-109943997D01*
X109699000Y-107569000D02*
X112014000Y-109884000D01*
X109345000Y-149225000D02*
X109347000Y-146177000D01*
X115568000Y-104902000D02*
X114933000Y-104267000D01*
X114933000Y-104267000D02*
X113919000Y-104267000D01*
X112395000Y-109918000D02*
X112363000Y-109950000D01*
X112395000Y-105000002D02*
X112395000Y-109918000D01*
X113724000Y-109950000D02*
X112363000Y-109950000D01*
X112363000Y-109950000D02*
X112020003Y-109950000D01*
X105224000Y-107550000D02*
X103096000Y-107569000D01*
%TO.N,Net-(C5-Pad1)*%
X113832000Y-108458000D02*
X113724000Y-108350000D01*
X115598000Y-108458000D02*
X113832000Y-108458000D01*
%TO.N,Net-(C9-Pad1)*%
X103140000Y-136603000D02*
X103140000Y-137144000D01*
X103140000Y-137144000D02*
X102705010Y-137578990D01*
X102225010Y-137578990D02*
X101600000Y-138204000D01*
X102705010Y-137578990D02*
X102225010Y-137578990D01*
%TO.N,+VSW*%
X102616000Y-139609002D02*
X102616000Y-139194000D01*
X101990999Y-140325001D02*
X102616000Y-139700000D01*
X103640000Y-133653000D02*
X103640000Y-132707000D01*
X104140000Y-133653000D02*
X104140000Y-132715000D01*
D33*
X103935000Y-133653000D02*
X103935000Y-132383000D01*
D32*
X103935000Y-133653000D02*
X103640000Y-133653000D01*
X104140000Y-133653000D02*
X103935000Y-133653000D01*
X101990999Y-140325001D02*
X102695010Y-140325001D01*
X102695010Y-140325001D02*
X102870000Y-140150011D01*
X103632000Y-141400011D02*
X104725989Y-142494000D01*
X104725989Y-142494000D02*
X107696000Y-142494000D01*
X114425000Y-143508000D02*
X113411000Y-142494000D01*
X114425000Y-143637000D02*
X114425000Y-143508000D01*
X101900001Y-140325001D02*
X101990999Y-140325001D01*
X101299999Y-140325001D02*
X101900001Y-140325001D01*
X100965000Y-133731000D02*
X100964990Y-139989992D01*
X100964990Y-139989992D02*
X101299999Y-140325001D01*
X100965000Y-133731000D02*
X100965000Y-133350000D01*
X100965000Y-133350000D02*
X102108000Y-132207000D01*
X102108000Y-132207000D02*
X103378000Y-130937000D01*
%TO.N,Net-(R2-Pad2)*%
X114935000Y-138176506D02*
X114935000Y-138301000D01*
X116205000Y-136906506D02*
X114935000Y-138176506D01*
X116205000Y-136050000D02*
X116205000Y-136906506D01*
%TO.N,Net-(J1-Pad4)*%
X115445000Y-144905000D02*
X114935000Y-145415000D01*
X115445000Y-143637000D02*
X115445000Y-144905000D01*
X113926000Y-145415000D02*
X113919000Y-145408000D01*
X114935000Y-145415000D02*
X113926000Y-145415000D01*
D33*
%TO.N,+5V*%
X112395000Y-130650000D02*
X112395000Y-128410000D01*
D32*
X114935000Y-139321000D02*
X115034500Y-139321000D01*
D33*
X114084830Y-126022830D02*
X114046000Y-125984000D01*
X114046000Y-127221002D02*
X112857002Y-128410000D01*
X112857002Y-128410000D02*
X112395000Y-128410000D01*
X114046000Y-125984000D02*
X114046000Y-127221002D01*
X114046000Y-125984000D02*
X114046000Y-124460000D01*
D32*
X115634330Y-126022830D02*
X116459000Y-126847500D01*
X114084830Y-126022830D02*
X115634330Y-126022830D01*
X114935000Y-139321000D02*
X114935000Y-139288815D01*
X114935000Y-139288815D02*
X116574980Y-137648835D01*
X117024990Y-126281510D02*
X116459000Y-126847500D01*
X117024990Y-125984000D02*
X117024990Y-126281510D01*
%TO.N,Net-(J3-PadB5)*%
X113155000Y-121761000D02*
X113282000Y-121888000D01*
X112014000Y-121761000D02*
X113155000Y-121761000D01*
%TO.N,LED*%
X111080000Y-110744000D02*
X112014000Y-110744000D01*
X110674000Y-112200000D02*
X110674000Y-111150000D01*
X110674000Y-111150000D02*
X111080000Y-110744000D01*
X113926000Y-147915000D02*
X113919000Y-147908000D01*
X117007000Y-147915000D02*
X113926000Y-147915000D01*
X116332000Y-110998000D02*
X117649990Y-112315990D01*
X117649990Y-147272010D02*
X117007000Y-147915000D01*
X117649990Y-112315990D02*
X117649990Y-147272010D01*
%TO.N,Net-(R11-Pad1)*%
X114935000Y-130650000D02*
X114935000Y-128780000D01*
%TO.N,Net-(J3-PadA5)*%
X113282000Y-119475000D02*
X112014000Y-119475000D01*
%TO.N,HEATER_PWM*%
X107523001Y-126650001D02*
X108315000Y-127442000D01*
X108315000Y-127522000D02*
X106805000Y-129032000D01*
X108315000Y-127442000D02*
X108315000Y-127522000D01*
X107269001Y-126396001D02*
X107523001Y-126650001D01*
X107269001Y-123743999D02*
X107269001Y-126396001D01*
X106674000Y-112200000D02*
X106674000Y-116961000D01*
X106674000Y-116961000D02*
X106680000Y-116967000D01*
X107269001Y-123743999D02*
X107315000Y-123698000D01*
%TO.N,BOOST_EN*%
X104640000Y-138166000D02*
X104648000Y-138174000D01*
X104640000Y-136603000D02*
X104640000Y-138166000D01*
X104497991Y-140775011D02*
X101113599Y-140775011D01*
X105293010Y-139979992D02*
X104497991Y-140775011D01*
X104648000Y-138174000D02*
X105293010Y-138819010D01*
X105293010Y-138819010D02*
X105293010Y-139979992D01*
X101113599Y-140775011D02*
X100692294Y-140353706D01*
X100692294Y-140353706D02*
X100514980Y-140176392D01*
X101733000Y-105150000D02*
X105224000Y-105150000D01*
X100482989Y-106400011D02*
X101733000Y-105150000D01*
X100692294Y-140353706D02*
X100482989Y-140144401D01*
X100482989Y-140144401D02*
X100482989Y-106400011D01*
%TO.N,Net-(R17-Pad2)*%
X103640000Y-138166000D02*
X103632000Y-138174000D01*
X103640000Y-136603000D02*
X103640000Y-138166000D01*
X103632000Y-138174000D02*
X102616000Y-138174000D01*
%TO.N,Net-(D1-Pad1)*%
X115310544Y-139916010D02*
X114260010Y-139916010D01*
X114260010Y-139916010D02*
X113665000Y-139321000D01*
X117199980Y-138026574D02*
X115310544Y-139916010D01*
X117199980Y-129163480D02*
X117199980Y-138026574D01*
X116459000Y-128422500D02*
X117199980Y-129163480D01*
%TO.N,MOSI*%
X105823001Y-120047001D02*
X104648000Y-118872000D01*
X107790999Y-120047001D02*
X105823001Y-120047001D01*
X108712000Y-119126000D02*
X107790999Y-120047001D01*
X111474000Y-112200000D02*
X111474000Y-113814980D01*
X111252000Y-114036980D02*
X110297552Y-114036980D01*
X111474000Y-113814980D02*
X111252000Y-114036980D01*
X108712000Y-115622532D02*
X108712000Y-115824000D01*
X110297552Y-114036980D02*
X108712000Y-115622532D01*
X108712000Y-115824000D02*
X108712000Y-119126000D01*
%TO.N,MISO*%
X107188000Y-121286410D02*
X107188000Y-121412000D01*
X109220000Y-119254410D02*
X107188000Y-121286410D01*
X112274000Y-112200000D02*
X112274000Y-114040000D01*
X111827010Y-114486990D02*
X110483952Y-114486990D01*
X112274000Y-114040000D02*
X111827010Y-114486990D01*
X109220000Y-115750942D02*
X109220000Y-115824000D01*
X110483952Y-114486990D02*
X109220000Y-115750942D01*
X109220000Y-115824000D02*
X109220000Y-119254410D01*
%TO.N,SCK*%
X108261990Y-116782010D02*
X107347001Y-117696999D01*
X103472999Y-120236999D02*
X104648000Y-121412000D01*
X103472999Y-118307999D02*
X103472999Y-120236999D01*
X104083999Y-117696999D02*
X103472999Y-118307999D01*
X107347001Y-117696999D02*
X104083999Y-117696999D01*
X108261990Y-116782010D02*
X108261990Y-115210251D01*
X108261990Y-115210251D02*
X109963498Y-113508743D01*
X113538000Y-113538000D02*
X113284000Y-113538000D01*
X114994990Y-110930990D02*
X114994990Y-112081010D01*
X113724000Y-110750000D02*
X114814000Y-110750000D01*
X114994990Y-112081010D02*
X113538000Y-113538000D01*
X114814000Y-110750000D02*
X114994990Y-110930990D01*
%TO.N,~RST*%
X109074000Y-103700000D02*
X109074000Y-110725000D01*
X109074000Y-110725000D02*
X109093000Y-110744000D01*
X106045000Y-113792000D02*
X102362000Y-117475000D01*
X100932999Y-120236999D02*
X102108000Y-121412000D01*
X100932999Y-118307999D02*
X100932999Y-120236999D01*
X101765998Y-117475000D02*
X100932999Y-118307999D01*
X102362000Y-117475000D02*
X101765998Y-117475000D01*
D33*
%TO.N,Net-(L1-Pad2)*%
X105140000Y-133653000D02*
X105140000Y-133112000D01*
X104730010Y-133458010D02*
X104730010Y-133368000D01*
X105140000Y-133653000D02*
X104925000Y-133653000D01*
X104925000Y-133653000D02*
X104730010Y-133458010D01*
X108478000Y-133112000D02*
X108712000Y-132878000D01*
X105140000Y-133112000D02*
X108478000Y-133112000D01*
D34*
%TO.N,Net-(J4-Pad1)*%
X104140000Y-126492000D02*
X104013000Y-126365000D01*
X106315000Y-126492000D02*
X104140000Y-126492000D01*
D32*
%TO.N,Net-(R1-Pad1)*%
X114935000Y-136050000D02*
X114935000Y-136779000D01*
X113665000Y-138049000D02*
X113665000Y-138301000D01*
X114935000Y-136779000D02*
X113665000Y-138049000D01*
%TO.N,GND*%
X101600000Y-139164000D02*
X101600000Y-139700000D01*
X104648000Y-139194000D02*
X104648000Y-139700000D01*
X107429000Y-141224000D02*
X106680000Y-141224000D01*
X107429000Y-139700000D02*
X106680000Y-139700000D01*
X108090000Y-130556000D02*
X108839000Y-130556000D01*
X107825000Y-129032000D02*
X108331000Y-129032000D01*
X113551000Y-141224000D02*
X114300000Y-141224000D01*
D33*
X108315000Y-125542000D02*
X109027000Y-125542000D01*
X109027000Y-125542000D02*
X109093000Y-125476000D01*
X108315000Y-125542000D02*
X108315000Y-126222000D01*
X108315000Y-126222000D02*
X108331000Y-126238000D01*
X108315000Y-124984000D02*
X108315000Y-125542000D01*
X108331000Y-124714000D02*
X108315000Y-124984000D01*
X102075000Y-151765000D02*
X100711000Y-151765000D01*
X102075000Y-150495000D02*
X100711000Y-150495000D01*
X102075000Y-149225000D02*
X100711000Y-149225000D01*
X102075000Y-147955000D02*
X100711000Y-147955000D01*
X102075000Y-147955000D02*
X102075000Y-147353000D01*
X100711000Y-147955000D02*
X100711000Y-148717000D01*
X100711000Y-147955000D02*
X100711000Y-147955000D01*
X100711000Y-148717000D02*
X100711000Y-149479000D01*
X100711000Y-149479000D02*
X100711000Y-150241000D01*
X100711000Y-150241000D02*
X100711000Y-151003000D01*
X100711000Y-151003000D02*
X100711000Y-151765000D01*
X100711000Y-151765000D02*
X100711000Y-151765000D01*
X102075000Y-147353000D02*
X102075000Y-147353000D01*
X102075000Y-151765000D02*
X102075000Y-152367000D01*
X102075000Y-152367000D02*
X102075000Y-152367000D01*
D32*
X116558000Y-108458000D02*
X117094000Y-108458000D01*
X116558000Y-109982000D02*
X117094000Y-109982000D01*
D33*
X113665000Y-132715000D02*
X114300000Y-133350000D01*
X113665000Y-130650000D02*
X113665000Y-132715000D01*
X116205000Y-130650000D02*
X116205000Y-131826000D01*
X114681000Y-133350000D02*
X114300000Y-133350000D01*
X116205000Y-131826000D02*
X114681000Y-133350000D01*
D32*
X114935000Y-127760000D02*
X114935000Y-127000000D01*
D33*
X112395000Y-126860000D02*
X113271000Y-126860000D01*
X113271000Y-126860000D02*
X113284000Y-126873000D01*
X112395000Y-126860000D02*
X112395000Y-125984000D01*
D32*
X104975000Y-134878000D02*
X104775000Y-134678000D01*
X105770000Y-134878000D02*
X104975000Y-134878000D01*
X104390000Y-135378000D02*
X104140000Y-135128000D01*
X105690000Y-135378000D02*
X104390000Y-135378000D01*
X103140000Y-135378000D02*
X103390000Y-135628000D01*
X102510000Y-135378000D02*
X103140000Y-135378000D01*
X103305000Y-134878000D02*
X103505000Y-134678000D01*
X102510000Y-134878000D02*
X103305000Y-134878000D01*
X103955000Y-135128000D02*
X103505000Y-135578000D01*
X104140000Y-135128000D02*
X103955000Y-135128000D01*
X103632000Y-139194000D02*
X103632000Y-139700000D01*
X114302000Y-121761000D02*
X115062000Y-121761000D01*
X114302000Y-119475000D02*
X115062000Y-119475000D01*
X116588000Y-105918000D02*
X117094000Y-105918000D01*
X105224000Y-108350000D02*
X103905000Y-108350000D01*
X103905000Y-108350000D02*
X103886000Y-108331000D01*
X113724000Y-107550000D02*
X115043000Y-107550000D01*
X115043000Y-107550000D02*
X115062000Y-107569000D01*
X102136000Y-107569000D02*
X101600000Y-107569000D01*
%TO.N,BAT*%
X115536000Y-105950000D02*
X115568000Y-105918000D01*
X113724000Y-105950000D02*
X115536000Y-105950000D01*
X116584000Y-104902000D02*
X115568000Y-105918000D01*
X116588000Y-104902000D02*
X116584000Y-104902000D01*
%TD*%
D35*
%TO.N,+BATT*%
X112425518Y-135275812D02*
X112550000Y-135288072D01*
X112649000Y-135288072D01*
X112649000Y-140445010D01*
X112608382Y-140494503D01*
X112528625Y-140643717D01*
X112479512Y-140805623D01*
X112462928Y-140974000D01*
X112462928Y-141474000D01*
X112479512Y-141642377D01*
X112528625Y-141804283D01*
X112608382Y-141953497D01*
X112630020Y-141979863D01*
X112582414Y-142051111D01*
X112511932Y-142221271D01*
X112476000Y-142401911D01*
X112476000Y-142586089D01*
X112511932Y-142766729D01*
X112582414Y-142936889D01*
X112649000Y-143036542D01*
X112649000Y-144462368D01*
X112553294Y-144578986D01*
X112415401Y-144836966D01*
X112330487Y-145116889D01*
X112301815Y-145408000D01*
X112330487Y-145699111D01*
X112415401Y-145979034D01*
X112521216Y-146177000D01*
X106172000Y-146177000D01*
X106172000Y-144399000D01*
X107188000Y-144399000D01*
X107212776Y-144396560D01*
X107236601Y-144389333D01*
X107258557Y-144377597D01*
X107277803Y-144361803D01*
X108293803Y-143345803D01*
X108309597Y-143326557D01*
X108321333Y-143304601D01*
X108328560Y-143280776D01*
X108331000Y-143256000D01*
X108331000Y-143181290D01*
X108422262Y-143090028D01*
X108524586Y-142936889D01*
X108595068Y-142766729D01*
X108631000Y-142586089D01*
X108631000Y-142401911D01*
X108595068Y-142221271D01*
X108524586Y-142051111D01*
X108422262Y-141897972D01*
X108408600Y-141884310D01*
X108451375Y-141804283D01*
X108500488Y-141642377D01*
X108517072Y-141474000D01*
X108517072Y-140974000D01*
X108500488Y-140805623D01*
X108451375Y-140643717D01*
X108371618Y-140494503D01*
X108344944Y-140462000D01*
X108371618Y-140429497D01*
X108451375Y-140280283D01*
X108500488Y-140118377D01*
X108517072Y-139950000D01*
X108517072Y-139450000D01*
X108500488Y-139281623D01*
X108451375Y-139119717D01*
X108371618Y-138970503D01*
X108331000Y-138921010D01*
X108331000Y-135255000D01*
X112356910Y-135255000D01*
X112425518Y-135275812D01*
%TA.AperFunction,Conductor*%
D36*
G36*
X112425518Y-135275812D02*
G01*
X112550000Y-135288072D01*
X112649000Y-135288072D01*
X112649000Y-140445010D01*
X112608382Y-140494503D01*
X112528625Y-140643717D01*
X112479512Y-140805623D01*
X112462928Y-140974000D01*
X112462928Y-141474000D01*
X112479512Y-141642377D01*
X112528625Y-141804283D01*
X112608382Y-141953497D01*
X112630020Y-141979863D01*
X112582414Y-142051111D01*
X112511932Y-142221271D01*
X112476000Y-142401911D01*
X112476000Y-142586089D01*
X112511932Y-142766729D01*
X112582414Y-142936889D01*
X112649000Y-143036542D01*
X112649000Y-144462368D01*
X112553294Y-144578986D01*
X112415401Y-144836966D01*
X112330487Y-145116889D01*
X112301815Y-145408000D01*
X112330487Y-145699111D01*
X112415401Y-145979034D01*
X112521216Y-146177000D01*
X106172000Y-146177000D01*
X106172000Y-144399000D01*
X107188000Y-144399000D01*
X107212776Y-144396560D01*
X107236601Y-144389333D01*
X107258557Y-144377597D01*
X107277803Y-144361803D01*
X108293803Y-143345803D01*
X108309597Y-143326557D01*
X108321333Y-143304601D01*
X108328560Y-143280776D01*
X108331000Y-143256000D01*
X108331000Y-143181290D01*
X108422262Y-143090028D01*
X108524586Y-142936889D01*
X108595068Y-142766729D01*
X108631000Y-142586089D01*
X108631000Y-142401911D01*
X108595068Y-142221271D01*
X108524586Y-142051111D01*
X108422262Y-141897972D01*
X108408600Y-141884310D01*
X108451375Y-141804283D01*
X108500488Y-141642377D01*
X108517072Y-141474000D01*
X108517072Y-140974000D01*
X108500488Y-140805623D01*
X108451375Y-140643717D01*
X108371618Y-140494503D01*
X108344944Y-140462000D01*
X108371618Y-140429497D01*
X108451375Y-140280283D01*
X108500488Y-140118377D01*
X108517072Y-139950000D01*
X108517072Y-139450000D01*
X108500488Y-139281623D01*
X108451375Y-139119717D01*
X108371618Y-138970503D01*
X108331000Y-138921010D01*
X108331000Y-135255000D01*
X112356910Y-135255000D01*
X112425518Y-135275812D01*
G37*
%TD.AperFunction*%
%TD*%
D35*
%TO.N,-BATT*%
X105283000Y-146304000D02*
X105285440Y-146328776D01*
X105292667Y-146352601D01*
X105302304Y-146371310D01*
X105937304Y-147387310D01*
X105952505Y-147407027D01*
X105971260Y-147423400D01*
X105992850Y-147435799D01*
X106016443Y-147443748D01*
X106045000Y-147447000D01*
X108331000Y-147447000D01*
X108331000Y-149587922D01*
X108278745Y-149572071D01*
X108125000Y-149556928D01*
X106825000Y-149556928D01*
X106671255Y-149572071D01*
X106523418Y-149616916D01*
X106387171Y-149689742D01*
X106267749Y-149787749D01*
X106169742Y-149907171D01*
X106096916Y-150043418D01*
X106052071Y-150191255D01*
X106036928Y-150345000D01*
X106036928Y-150645000D01*
X106052071Y-150798745D01*
X106096916Y-150946582D01*
X106169742Y-151082829D01*
X106267749Y-151202251D01*
X106387171Y-151300258D01*
X106523418Y-151373084D01*
X106671255Y-151417929D01*
X106825000Y-151433072D01*
X108125000Y-151433072D01*
X108278745Y-151417929D01*
X108331000Y-151402078D01*
X108331000Y-152273000D01*
X103505000Y-152273000D01*
X103505000Y-151996954D01*
X103513072Y-151915000D01*
X103513072Y-151615000D01*
X103505000Y-151533046D01*
X103505000Y-150726954D01*
X103513072Y-150645000D01*
X103513072Y-150345000D01*
X103505000Y-150263046D01*
X103505000Y-149456954D01*
X103513072Y-149375000D01*
X103513072Y-149075000D01*
X103505000Y-148993046D01*
X103505000Y-148186954D01*
X103513072Y-148105000D01*
X103513072Y-147805000D01*
X103505000Y-147723046D01*
X103505000Y-146939000D01*
X103502560Y-146914224D01*
X103495333Y-146890399D01*
X103483597Y-146868443D01*
X103467803Y-146849197D01*
X102870000Y-146251394D01*
X102870000Y-144272000D01*
X105283000Y-144272000D01*
X105283000Y-146304000D01*
%TA.AperFunction,Conductor*%
D36*
G36*
X105283000Y-146304000D02*
G01*
X105285440Y-146328776D01*
X105292667Y-146352601D01*
X105302304Y-146371310D01*
X105937304Y-147387310D01*
X105952505Y-147407027D01*
X105971260Y-147423400D01*
X105992850Y-147435799D01*
X106016443Y-147443748D01*
X106045000Y-147447000D01*
X108331000Y-147447000D01*
X108331000Y-149587922D01*
X108278745Y-149572071D01*
X108125000Y-149556928D01*
X106825000Y-149556928D01*
X106671255Y-149572071D01*
X106523418Y-149616916D01*
X106387171Y-149689742D01*
X106267749Y-149787749D01*
X106169742Y-149907171D01*
X106096916Y-150043418D01*
X106052071Y-150191255D01*
X106036928Y-150345000D01*
X106036928Y-150645000D01*
X106052071Y-150798745D01*
X106096916Y-150946582D01*
X106169742Y-151082829D01*
X106267749Y-151202251D01*
X106387171Y-151300258D01*
X106523418Y-151373084D01*
X106671255Y-151417929D01*
X106825000Y-151433072D01*
X108125000Y-151433072D01*
X108278745Y-151417929D01*
X108331000Y-151402078D01*
X108331000Y-152273000D01*
X103505000Y-152273000D01*
X103505000Y-151996954D01*
X103513072Y-151915000D01*
X103513072Y-151615000D01*
X103505000Y-151533046D01*
X103505000Y-150726954D01*
X103513072Y-150645000D01*
X103513072Y-150345000D01*
X103505000Y-150263046D01*
X103505000Y-149456954D01*
X103513072Y-149375000D01*
X103513072Y-149075000D01*
X103505000Y-148993046D01*
X103505000Y-148186954D01*
X103513072Y-148105000D01*
X103513072Y-147805000D01*
X103505000Y-147723046D01*
X103505000Y-146939000D01*
X103502560Y-146914224D01*
X103495333Y-146890399D01*
X103483597Y-146868443D01*
X103467803Y-146849197D01*
X102870000Y-146251394D01*
X102870000Y-144272000D01*
X105283000Y-144272000D01*
X105283000Y-146304000D01*
G37*
%TD.AperFunction*%
%TD*%
D35*
%TO.N,+VSW*%
X106063633Y-130114224D02*
X106078635Y-130134093D01*
X106097225Y-130150653D01*
X106118688Y-130163269D01*
X106142201Y-130171454D01*
X106172000Y-130175000D01*
X106807000Y-130175000D01*
X106807000Y-132227000D01*
X105183477Y-132227000D01*
X105140000Y-132222718D01*
X105096524Y-132227000D01*
X105096523Y-132227000D01*
X104966510Y-132239805D01*
X104799687Y-132290411D01*
X104645941Y-132372589D01*
X104538213Y-132461000D01*
X104267000Y-132461000D01*
X104242224Y-132463440D01*
X104218399Y-132470667D01*
X104196443Y-132482403D01*
X104177197Y-132498197D01*
X104161403Y-132517443D01*
X104149667Y-132539399D01*
X104142440Y-132563224D01*
X104140000Y-132588000D01*
X104140000Y-132701982D01*
X104048815Y-132776815D01*
X103969463Y-132873506D01*
X103910498Y-132983820D01*
X103890000Y-133051393D01*
X103869502Y-132983820D01*
X103810537Y-132873506D01*
X103731185Y-132776815D01*
X103634494Y-132697463D01*
X103632000Y-132696130D01*
X103632000Y-132588000D01*
X103629560Y-132563224D01*
X103622333Y-132539399D01*
X103610597Y-132517443D01*
X103594803Y-132498197D01*
X103575557Y-132482403D01*
X103553601Y-132470667D01*
X103529776Y-132463440D01*
X103505000Y-132461000D01*
X102997000Y-132461000D01*
X102997000Y-127889000D01*
X104703774Y-127889000D01*
X106063633Y-130114224D01*
%TA.AperFunction,Conductor*%
D36*
G36*
X106063633Y-130114224D02*
G01*
X106078635Y-130134093D01*
X106097225Y-130150653D01*
X106118688Y-130163269D01*
X106142201Y-130171454D01*
X106172000Y-130175000D01*
X106807000Y-130175000D01*
X106807000Y-132227000D01*
X105183477Y-132227000D01*
X105140000Y-132222718D01*
X105096524Y-132227000D01*
X105096523Y-132227000D01*
X104966510Y-132239805D01*
X104799687Y-132290411D01*
X104645941Y-132372589D01*
X104538213Y-132461000D01*
X104267000Y-132461000D01*
X104242224Y-132463440D01*
X104218399Y-132470667D01*
X104196443Y-132482403D01*
X104177197Y-132498197D01*
X104161403Y-132517443D01*
X104149667Y-132539399D01*
X104142440Y-132563224D01*
X104140000Y-132588000D01*
X104140000Y-132701982D01*
X104048815Y-132776815D01*
X103969463Y-132873506D01*
X103910498Y-132983820D01*
X103890000Y-133051393D01*
X103869502Y-132983820D01*
X103810537Y-132873506D01*
X103731185Y-132776815D01*
X103634494Y-132697463D01*
X103632000Y-132696130D01*
X103632000Y-132588000D01*
X103629560Y-132563224D01*
X103622333Y-132539399D01*
X103610597Y-132517443D01*
X103594803Y-132498197D01*
X103575557Y-132482403D01*
X103553601Y-132470667D01*
X103529776Y-132463440D01*
X103505000Y-132461000D01*
X102997000Y-132461000D01*
X102997000Y-127889000D01*
X104703774Y-127889000D01*
X106063633Y-130114224D01*
G37*
%TD.AperFunction*%
%TD*%
M02*
