%TF.GenerationSoftware,KiCad,Pcbnew,5.1.9-73d0e3b20d~88~ubuntu18.04.1*%
%TF.CreationDate,2021-02-25T17:56:51+01:00*%
%TF.ProjectId,climate_control,636c696d-6174-4655-9f63-6f6e74726f6c,rev?*%
%TF.SameCoordinates,Original*%
%TF.FileFunction,Soldermask,Bot*%
%TF.FilePolarity,Negative*%
%FSLAX46Y46*%
G04 Gerber Fmt 4.6, Leading zero omitted, Abs format (unit mm)*
G04 Created by KiCad (PCBNEW 5.1.9-73d0e3b20d~88~ubuntu18.04.1) date 2021-02-25 17:56:51*
%MOMM*%
%LPD*%
G01*
G04 APERTURE LIST*
%ADD10O,1.950000X1.700000*%
%ADD11C,0.600000*%
%ADD12O,1.700000X2.000000*%
%ADD13O,2.000000X1.700000*%
%ADD14C,0.700000*%
%ADD15O,2.100000X1.050000*%
%ADD16R,1.450000X0.600000*%
%ADD17R,1.450000X0.300000*%
%ADD18R,1.700000X1.700000*%
%ADD19O,1.700000X1.700000*%
G04 APERTURE END LIST*
%TO.C,J1*%
G36*
G01*
X114644000Y-153758000D02*
X113194000Y-153758000D01*
G75*
G02*
X112944000Y-153508000I0J250000D01*
G01*
X112944000Y-152308000D01*
G75*
G02*
X113194000Y-152058000I250000J0D01*
G01*
X114644000Y-152058000D01*
G75*
G02*
X114894000Y-152308000I0J-250000D01*
G01*
X114894000Y-153508000D01*
G75*
G02*
X114644000Y-153758000I-250000J0D01*
G01*
G37*
D10*
X113919000Y-150408000D03*
X113919000Y-147908000D03*
X113919000Y-145408000D03*
%TD*%
D11*
%TO.C,U4*%
X103390000Y-135628000D03*
X104140000Y-135128000D03*
X104890000Y-135628000D03*
X104890000Y-134628000D03*
X103390000Y-134628000D03*
%TD*%
D12*
%TO.C,J2*%
X104434000Y-145288000D03*
G36*
G01*
X107784000Y-144538000D02*
X107784000Y-146038000D01*
G75*
G02*
X107534000Y-146288000I-250000J0D01*
G01*
X106334000Y-146288000D01*
G75*
G02*
X106084000Y-146038000I0J250000D01*
G01*
X106084000Y-144538000D01*
G75*
G02*
X106334000Y-144288000I250000J0D01*
G01*
X107534000Y-144288000D01*
G75*
G02*
X107784000Y-144538000I0J-250000D01*
G01*
G37*
%TD*%
%TO.C,J4*%
G36*
G01*
X103263000Y-125515000D02*
X104763000Y-125515000D01*
G75*
G02*
X105013000Y-125765000I0J-250000D01*
G01*
X105013000Y-126965000D01*
G75*
G02*
X104763000Y-127215000I-250000J0D01*
G01*
X103263000Y-127215000D01*
G75*
G02*
X103013000Y-126965000I0J250000D01*
G01*
X103013000Y-125765000D01*
G75*
G02*
X103263000Y-125515000I250000J0D01*
G01*
G37*
D13*
X104013000Y-128865000D03*
%TD*%
D14*
%TO.C,J3*%
X112174000Y-123254000D03*
X112174000Y-117474000D03*
D15*
X115824000Y-124684000D03*
X115824000Y-116044000D03*
X111644000Y-124684000D03*
X111644000Y-116044000D03*
D16*
X110729000Y-123614000D03*
X110729000Y-122814000D03*
D17*
X110729000Y-122114000D03*
X110729000Y-121614000D03*
X110729000Y-121114000D03*
X110729000Y-120614000D03*
X110729000Y-118614000D03*
X110729000Y-119114000D03*
X110729000Y-119614000D03*
X110729000Y-120114000D03*
D16*
X110729000Y-117914000D03*
X110729000Y-117114000D03*
%TD*%
D18*
%TO.C,J5*%
X107188000Y-121412000D03*
D19*
X107188000Y-118872000D03*
X104648000Y-121412000D03*
X104648000Y-118872000D03*
X102108000Y-121412000D03*
X102108000Y-118872000D03*
%TD*%
M02*
